<svg xmlns="http://www.w3.org/2000/svg" viewBox="0 0 260.6 8.37"><defs><style>.cls-1{fill:#f9c94d;}</style></defs><g id="Layer_2" data-name="Layer 2"><g id="Lines"><path class="cls-1" d="M2.26,3c5.32-.4,10.65-.57,16-.85s10.67-.26,16-.39l8-.14,4-.06c1.34,0,2.67,0,4,0l4,.17,2,.07h2c2.67,0,5.33-.2,8-.3l16-.94c2.67-.15,5.34-.31,8-.23s5.34.29,8,.16a19.43,19.43,0,0,1,4-.48h12c5.34.11,10.68.17,16,.32,2.67.09,5.34.19,8,.08,1.34,0,2.67-.23,4-.33a38.14,38.14,0,0,1,4-.08c2.67,0,5.33.27,8,.45s5.33.44,8,.65c5.32.34,10.66.33,16,.26S189,.72,194.3.69c5.34.17,10.67.48,16,.84l8,.57,8,.44,4,.12h4c2.67,0,5.34,0,8,.13,5.33.26,10.67.42,16,.78h.1A2.4,2.4,0,1,1,258,8.37h0c-5.31-.41-10.64-.54-16-.8-1.33-.05-2.66-.1-4-.1s-2.67,0-4,0l-4,.06-4,0-31.93-1.2c-2.66-.08-5.32-.16-8-.12s-5.33.12-8,.12c-5.32,0-10.65-.07-16-.43-2.65-.24-5.31-.46-8-.46s-5.32-.08-8-.09l-8-.06c-2.66,0-5.33.15-8,.24s-5.32,0-8,0l-8-.1-8-.06a46.45,46.45,0,0,0-8,.31c-2.66.12-5.32.09-8,.07s-5.33,0-8,.11l-16,.58c-2.67,0-5.32.18-8,.14l-2,0-2-.1-4-.2c-1.33,0-2.66,0-4,0l-4,.11-8,.23C23.78,7,13.13,7.39,2.49,7.79A2.4,2.4,0,0,1,2.22,3Z"/></g></g></svg>