<svg xmlns="http://www.w3.org/2000/svg" viewBox="0 0 316.49 110.06"><defs><style>.cls-1{fill:#f6c94d;}</style></defs><g id="Layer_2" data-name="Layer 2"><g id="Lines"><path class="cls-1" d="M313,30.2a219.5,219.5,0,0,0-43.09-16,272.3,272.3,0,0,0-45.43-8C216.8,5.46,209.1,5,201.38,4.8l-5.79-.12c-1.93,0-3.86,0-5.79,0s-3.87,0-5.8,0l-5.8.11c-3.86,0-7.73.21-11.59.38s-7.73.44-11.59.75c-7.72.62-15.39,1.72-23.06,2.77-15.33,2.25-30.59,5.05-45.57,8.78-7.48,1.9-14.92,3.91-22.28,6.18a189.07,189.07,0,0,0-21.76,7.68c-1.76.78-3.44,1.73-5.14,2.62s-3.41,1.74-5.13,2.59c-3.43,1.7-6.77,3.5-10,5.5a60.22,60.22,0,0,0-8.93,6.71,27,27,0,0,0-6.39,8.45A15.23,15.23,0,0,0,5.72,67a20.35,20.35,0,0,0,5,9A39.34,39.34,0,0,0,19.27,83a79.43,79.43,0,0,0,10,5.21,111.3,111.3,0,0,0,10.73,4c3.65,1.15,7.33,2.27,11.09,3.1s7.55,1.53,11.34,2.18l11.39,2a448.14,448.14,0,0,0,46,5.38c7.73.44,15.48.55,23.22.42s15.48-.53,23.2-1c15.45-1.17,30.78-3.46,46-5.89a338.21,338.21,0,0,0,45.27-9.25,180.39,180.39,0,0,0,21.68-7.66,101.08,101.08,0,0,0,19.86-11.13,40.54,40.54,0,0,0,7.78-7.87,23.75,23.75,0,0,0,4.44-9.65,16.23,16.23,0,0,0,.17-5.1A17.24,17.24,0,0,0,310,42.83a23.85,23.85,0,0,0-2.81-4.49,33.89,33.89,0,0,0-3.64-4.06,55.92,55.92,0,0,0-8.82-6.83q-4.83-3.09-9.89-5.79a127.6,127.6,0,0,0-21-9h0A2.4,2.4,0,0,1,265.34,8h0a143.25,143.25,0,0,1,21.74,9.44c3.48,1.86,6.89,3.84,10.21,6a60.53,60.53,0,0,1,9.58,7.4,38.58,38.58,0,0,1,4.13,4.6,29.3,29.3,0,0,1,3.37,5.39,21.89,21.89,0,0,1,1.92,6.29,21,21,0,0,1-.22,6.63,28.64,28.64,0,0,1-5.26,11.62,45.12,45.12,0,0,1-8.68,8.88,105.73,105.73,0,0,1-20.78,11.91,182.73,182.73,0,0,1-22.25,8.09,329.18,329.18,0,0,1-46,9.64c-3.86.61-7.74,1.09-11.6,1.62l-11.63,1.39-5.82.68-5.83.59c-2,.19-3.89.38-5.84.53s-3.89.32-5.84.44c-7.81.44-15.62.79-23.44.86s-15.65,0-23.46-.43c-15.61-1.06-31.21-2.42-46.67-4.92C65.29,103.42,57.59,101.89,50,100A156.46,156.46,0,0,1,27.32,92.9,75.34,75.34,0,0,1,16.5,87.49a44.9,44.9,0,0,1-9.68-7.83A25.75,25.75,0,0,1,.54,68.26L.25,66.59A9.52,9.52,0,0,1,0,64.9l0-1.71c0-.28,0-.57,0-.85l.11-.85L.34,59.8c.09-.56.28-1.09.42-1.64s.28-1.1.49-1.61L1.9,55A32.36,32.36,0,0,1,9.54,44.85a65,65,0,0,1,9.73-7.3A118.67,118.67,0,0,1,29.73,31.8L35,29.18c1.76-.88,3.52-1.8,5.32-2.6A204.44,204.44,0,0,1,62.5,18.52C70,16.21,77.59,14.2,85.2,12.35,100.44,8.69,115.83,6,131.3,3.84c7.74-1,15.49-2,23.29-2.63,3.9-.29,7.79-.61,11.71-.7S174.11.2,178,.19l5.86-.14c2,0,3.91,0,5.87,0s3.9-.06,5.86,0l5.86.1c7.82.13,15.64.6,23.43,1.27a269.48,269.48,0,0,1,46.3,7.89,219.67,219.67,0,0,1,22.43,7.13,205.82,205.82,0,0,1,21.56,9.53A2.4,2.4,0,0,1,313,30.22Z"/></g></g></svg>