<?xml version="1.0" encoding="utf-8"?>
<!-- Generator: Adobe Illustrator 25.2.0, SVG Export Plug-In . SVG Version: 6.00 Build 0)  -->
<svg version="1.1" id="Layer_1" xmlns="http://www.w3.org/2000/svg" xmlns:xlink="http://www.w3.org/1999/xlink" x="0px" y="0px"
	 viewBox="0 0 229.7 76.4" style="enable-background:new 0 0 229.7 76.4;" xml:space="preserve">
<style type="text/css">
	.st0{fill:#00D1C1;}
</style>
<g id="Layer_2_1_">
	<g id="Lines">
		<path class="st0" d="M37,20.7c-0.6,0.2-1.1,0.2-1.2-0.2c-0.1-0.3-1.2,0.2-1.1-0.7c-1.3-0.6-2.3-1.5-3.1-2.7
			c-1.1-1.3-2.2-2.5-3.3-2.5c-1.3-0.5-2.4-1.3-3.4-2.3c-0.6,0.5-2.8-0.6-3.5-2.1c-1.4-0.3-2.6-1-3.6-1.9c-0.6-0.4-2.3-1.9-3.7-1.8
			c-0.8-0.4-1.8-1.1-1.9-1.9c-0.6-0.8-0.6-1.9,0.1-2.7c0.5-0.8,1.2-1.4,1.9-1.8c0.7,0.2,2.1,0,2.7,0.1c1,0.9,3.8,1.2,4.1,1.9
			c1.8,0.5,1.7,1.2,4,2.1C26.6,5,27.4,6,28.8,6.5s1.6,1.6,3.7,2.5c1.8,0.5,2.4,2,3.6,2.7c1.4,1.4,2.9,2.4,3.4,2.9
			c0.7,0.6,1.2,1.5,1.2,2.4c-0.5,0.8-0.3,1.5-0.9,2.5c-0.5,0.8-0.4,0.6-1.2,0.9C37.7,20.9,37.3,20.5,37,20.7z"/>
		<path class="st0" d="M3.4,48.4c-0.3,0.4-1.1-0.3-1.6-0.5c-0.4-0.5-1.3-0.7-1.1-1.3c-0.6-0.4-0.8-1.2-0.5-1.8
			c0.1-0.2,0.3-0.3,0.5-0.5c0.1-0.8,0.8-1.5,1.6-1.6c1.3-1.3,3.1-1.2,4-1.6c1.4-0.5,2.7-0.6,4-1.4c1.4-0.1,2.8-0.5,4.1-1.2
			c1.7-0.2,2.2-1,4.1-1.1c1.6-0.3,3.2-0.8,4.2-0.9c0.9-0.4,2.9,0,4.2-0.7c0.4,0.3,1.6,0.2,2.2,0.6c0.8,0.3,1.3,1.1,1.2,2
			c0,0.8-0.2,1.5-0.6,2.2c-0.7,0.5-1.2,1.4-2,1.2c-1.4,0-2.7,0.3-4,0.7c-1.8,0-2.4,1.2-3.9,0.8c-1.8,0.5-2.8,0.2-3.9,1
			c-1.4,0.1-2.7,0.5-3.8,1.2c-1.3,0.2-2.6,0.7-3.8,1.3c-1.4,0.1-2.6,0.6-3.7,1.5C4.4,48.7,3.6,48.5,3.4,48.4z"/>
		<path class="st0" d="M18.3,76.4c-0.4-0.3-1.8-1.1-2.2-0.9c-0.9-0.4-0.6-1.2-0.8-2.1c0.1-0.6,0.6-1.1,0.9-2.1c1-1.1,2.2-2.1,3.4-3
			c1.3-0.8,2.5-1.7,3.5-2.8c0.9-1.3,2.2-2.2,3.7-2.6c1.1-0.4,1.6-1.5,3.9-2.3c1.1-0.6,2.4-1.5,4-2.1c0.8-0.8,2.8-1.5,4.1-1.9
			c0.7-0.2,1.6-0.2,2.3,0c0.8,0.3,1.1,1,1.6,1.6c0.6,1,0,1.7,0,2.3c-0.5,0.8-0.7,1.3-1.6,1.6c-1.1,1-2.3,1-3.8,1.7
			c-1,1-2.3,1.6-3.7,2c-0.8,1-2.6,0.9-3.5,2.2c-1.3,0.5-2.5,1.3-3.4,2.4s-2,1.9-3.3,2.6c-0.7,0.8-2.4,1.6-3.1,2.8
			C19.8,76.5,19.3,76,18.3,76.4z"/>
		<path class="st0" d="M197.1,23.9c-0.6,0.2-1.3,0-1.6-0.5c-0.5-0.4-0.8-0.8-1.1-1.3c-0.2-0.8-0.2-1.5,0-2.3c0.5-0.6,1-1.1,1.6-1.6
			c1.4-0.1,2.3-1.1,3.7-1.7c1.6-0.8,1.6-1.4,3.7-1.8c1.3-0.8,2.8-1.3,3.6-1.9c1.4-0.8,2.6-1.9,3.5-2c1.3-0.8,2.2-1.9,3.4-2.2
			c1.2-0.9,2.5-1.5,3.4-2.3c1.5-1,2.3-2.2,3.3-2.4c0.9-0.8,1.7-0.9,2.2-0.6c1,0.5,1.3,1,2,1.2c0.4,0.9,1,1.6,0.6,2.2
			c-0.4,1,0.4,1.5-1.2,2c-1.3,0.7-2.4,1.5-3.5,2.5c-1.3,0.3-1.9,2-3.6,2.4c-1.3,0.6-2.5,1.4-3.6,2.3c-1.8,0.5-2.8,1.6-3.7,2.1
			c-1.3,0.5-2.6,1.2-3.8,2c-1.4,0.3-2.8,0.9-3.9,1.9c-1.3,0.7-2.6,1.2-3.9,1.7C197.2,23.9,197.3,23.6,197.1,23.9z"/>
		<path class="st0" d="M201.4,40.7c-0.7,0-1.4-0.2-1.9-0.7c-0.4-0.3-0.5-1.1-1.1-1.8c-0.4-0.9,0.2-1.5,0.4-2.2
			c0.6-0.7,0.8-1.1,1.9-1.3c1,0.2,2.8-1,4-0.8c1.7,0,2-0.7,4-1c1.4,0.1,2.8-0.3,3.9-1.1c1.2-0.6,2.5-1,3.9-1.3
			c1.3-0.2,3.5-0.7,3.8-1.4c0.8-0.3,2.8-0.3,3.8-1.5c0.8-0.1,1.5-0.1,2.3,0c0.6,0.6,1.6,0.6,1.6,1.6c0.1,0.8-0.1,1.5,0,2.3
			c-0.2,0.8-0.8,1.4-1.6,1.6c-1.3,0.7-2.6,1.2-4,1.6c-1.4,0.5-2.9,1.5-4,1.5c-1.4,0.2-2.8,0.7-4.1,1.3c-1,0.5-2.2,0.4-4.1,1.2
			c-1.4,0.2-2.8,0.6-4.2,1s-2.8,0.7-4.2,0.9C202.1,41.2,201.7,40.8,201.4,40.7z"/>
		<path class="st0" d="M226.5,69.3c0.2,0.6-1,0.2-1.3-0.3c-1.2-0.8-2.7-2-3.9-2c-1.5-1.3-2.2-2.2-3.9-2.2c-1.4-0.5-2.7-1.3-3.8-2.3
			s-2.3-1.8-3.7-2.4c-1.4-1.1-2.7-1.5-3.6-2.5c-0.7-0.7-1.2-1-1.2-1.9c-0.3,0,0.2-2,0.5-2.2c0.5-1,1.2-0.8,1.9-1.2
			c0.9,0,1.2,0.7,2.2,0.5c1.3,0.6,2.5,1.4,3.5,2.4c1,1.1,2.2,1.9,3.6,2.3c1.4,0.9,2.8,1.7,3.6,2.2c1.2,1.8,2.1,0.4,3.7,2.1
			c1.2,0.4,2.2,1.7,3.8,2c0.9,0.1,0.8,0.9,1.5,1.7c0.2,1,0.8,1.7-0.2,2.3c-0.3,0.7-0.6,1.4-1.1,1.2S227.4,69.1,226.5,69.3z"/>
	</g>
</g>
</svg>
