<svg xmlns="http://www.w3.org/2000/svg" viewBox="0 0 229.74 76.42"><defs><style>.cls-1{fill:#f3c346;}</style></defs><g id="Layer_2" data-name="Layer 2"><g id="Lines"><path class="cls-1" d="M37,20.67c-.59.19-1.07.21-1.23-.22-.1-.26-1.23.25-1.1-.67a8.08,8.08,0,0,1-3.15-2.67c-1.12-1.27-2.22-2.47-3.28-2.49a9.83,9.83,0,0,1-3.39-2.31c-.64.49-2.81-.64-3.52-2.14A8.26,8.26,0,0,1,17.7,8.23c-.57-.44-2.27-1.95-3.73-1.76-.78-.39-1.75-1.07-1.85-1.94a2.25,2.25,0,0,1,.05-2.68A5.6,5.6,0,0,1,14.11,0c.73.16,2.09,0,2.68.06,1,.92,3.81,1.2,4.06,1.91,1.78.48,1.66,1.2,3.95,2.12,1.59.82,2.44,1.79,3.83,2.33s1.61,1.63,3.7,2.52c1.85.49,2.4,2,3.57,2.71C37.26,13,38.82,14,39.33,14.56A3.24,3.24,0,0,1,40.5,17c-.45.79-.31,1.52-.89,2.53-.49.77-.41.61-1.2.87C37.68,20.94,37.35,20.49,37,20.67Z"/><path class="cls-1" d="M3.42,48.36c-.33.37-1.07-.34-1.63-.49-.38-.51-1.31-.69-1.13-1.33a1.34,1.34,0,0,1,0-2.3,1.9,1.9,0,0,1,1.6-1.64c1.3-1.32,3.13-1.2,4-1.6,1.38-.49,2.71-.58,4-1.43a9.74,9.74,0,0,0,4.1-1.25c1.7-.2,2.17-1,4.14-1.07,1.63-.35,3.16-.82,4.18-.9.89-.42,2.92-.05,4.23-.71.44.32,1.58.23,2.22.56a1.81,1.81,0,0,1,1.18,2,5.1,5.1,0,0,1-.56,2.23c-.69.54-1.2,1.39-2,1.18a14.94,14.94,0,0,0-4,.68c-1.75,0-2.44,1.17-3.93.84-1.8.55-2.79.17-3.89,1a8.27,8.27,0,0,0-3.85,1.17,10.42,10.42,0,0,0-3.79,1.34A6.73,6.73,0,0,0,4.6,48.12C4.38,48.72,3.59,48.49,3.42,48.36Z"/><path class="cls-1" d="M18.33,76.42c-.41-.26-1.77-1.06-2.17-.93-.89-.44-.61-1.19-.83-2.14.13-.63.64-1.09.94-2.1a29.59,29.59,0,0,1,3.38-3,20.84,20.84,0,0,0,3.55-2.81,6.22,6.22,0,0,1,3.7-2.58c1.06-.43,1.64-1.5,3.86-2.35,1.15-.58,2.38-1.46,4-2.12.81-.85,2.76-1.45,4.13-1.88a3.87,3.87,0,0,1,2.3,0c.76.33,1.11,1,1.63,1.62.57,1,0,1.67,0,2.3-.49.82-.67,1.3-1.62,1.63-1.14,1-2.27,1-3.81,1.72a8.21,8.21,0,0,1-3.67,1.95c-.77,1-2.6.93-3.55,2.16a8.65,8.65,0,0,0-3.4,2.38,11,11,0,0,1-3.27,2.58c-.69.77-2.41,1.56-3.11,2.79C19.84,76.49,19.27,76,18.33,76.42Z"/><path class="cls-1" d="M197.07,23.93a1.48,1.48,0,0,1-1.64-.49,4.79,4.79,0,0,1-1.12-1.34,5.23,5.23,0,0,1,0-2.3,20.57,20.57,0,0,1,1.61-1.63c1.36-.12,2.28-1.08,3.72-1.66,1.64-.8,1.55-1.38,3.66-1.79,1.28-.81,2.75-1.27,3.6-1.91,1.36-.82,2.55-1.9,3.53-2,1.26-.75,2.2-1.86,3.45-2.16,1.18-.87,2.47-1.46,3.37-2.28,1.51-1,2.31-2.2,3.3-2.41.94-.78,1.66-.9,2.22-.58,1,.45,1.27,1,2,1.17.39.92,1,1.58.58,2.22-.35,1,.41,1.5-1.16,2a16.71,16.71,0,0,0-3.47,2.52c-1.31.26-1.89,2-3.55,2.41a22.56,22.56,0,0,0-3.63,2.27c-1.79.46-2.76,1.63-3.71,2.15a15.83,15.83,0,0,0-3.78,2A9,9,0,0,0,202.16,22a36.62,36.62,0,0,1-3.92,1.74C197.24,23.88,197.3,23.63,197.07,23.93Z"/><path class="cls-1" d="M201.35,40.7a2.85,2.85,0,0,1-1.89-.67c-.36-.33-.51-1.06-1.05-1.75-.38-.87.24-1.5.45-2.25.57-.72.79-1.14,1.92-1.27,1,.16,2.79-1,4-.85,1.73,0,2-.69,4-1a5.67,5.67,0,0,0,3.92-1.13,17.83,17.83,0,0,1,3.88-1.28c1.26-.24,3.49-.74,3.84-1.41.81-.27,2.82-.33,3.77-1.54a12.28,12.28,0,0,1,2.3,0c.61.6,1.64.6,1.64,1.6.08.81-.1,1.52,0,2.3a2.52,2.52,0,0,1-1.6,1.64,24.93,24.93,0,0,1-4,1.63c-1.45.5-2.86,1.45-4,1.48a14.68,14.68,0,0,0-4.09,1.34c-1,.45-2.24.41-4.13,1.19a28.46,28.46,0,0,0-4.16,1,32.48,32.48,0,0,1-4.2.9C202.05,41.16,201.74,40.78,201.35,40.7Z"/><path class="cls-1" d="M226.49,69.34c.16.57-1,.23-1.34-.32-1.23-.84-2.66-2-3.92-2-1.52-1.31-2.24-2.22-3.87-2.18a12.24,12.24,0,0,1-3.8-2.29,12.26,12.26,0,0,0-3.72-2.4c-1.38-1.1-2.69-1.46-3.65-2.52-.66-.72-1.18-1-1.21-1.94-.26,0,.2-2,.51-2.24.54-1,1.23-.82,1.95-1.22.91,0,1.23.67,2.24.52a11.13,11.13,0,0,1,3.49,2.41,8.35,8.35,0,0,0,3.57,2.3c1.45.92,2.76,1.72,3.64,2.2,1.2,1.78,2.11.37,3.71,2.08,1.24.39,2.19,1.69,3.76,2,.88.08.81.86,1.5,1.73.24,1,.83,1.71-.17,2.29-.26.68-.61,1.44-1.13,1.22S227.42,69.07,226.49,69.34Z"/></g></g></svg>