<svg xmlns="http://www.w3.org/2000/svg" viewBox="0 0 24 24" role="presentation" aria-hidden="true" focusable="false" style="height: 22px; width: 22px; display: block; fill: currentcolor;"><path d="m10.3763831 16.9958031c-.6091534.0521629-1.14605321-.3879614-1.19940971-.9834877-.12005213-1.3464543-1.24943145-4.7696434-4.97327072-4.4512325-.60915341.0521629-1.14605322-.3879614-1.19940973-.9834877-.0533565-.59661292.39683899-1.12041518 1.0059924-1.17257807 3.72495087-.31949764 4.22739128-3.88287447 4.10733914-5.22824212-.0533565-.59552623.396839-1.12041522 1.00599241-1.1725781s1.14605321.38796143 1.19940971.98348765c.1211637 1.34645438 1.2483199 4.76964347 4.9732707 4.45123254.6091534-.05216288 1.1460533.38796143 1.1994098.98348766.0533565.59661294-.396839 1.12041524-1.0059924 1.17257814-3.7249509.3194976-4.2273913 3.8828744-4.1073392 5.2282421.0533565.5955262-.396839 1.1204152-1.0059924 1.1725781zm7.584852.0683599c.2409587 1.3598115-.6664817 2.6570676-2.0250791 2.8970344-1.3596226.2409922-2.6566986-.6655488-2.8976573-2.0253604-.2399334-1.3598115.6664817-2.6570676 2.0261044-2.8970344 1.3585973-.2409922 2.6556732.6655488 2.896632 2.0253604zm2.0155617-4.8253807c.1443571.8157325-.3998465 1.5936573-1.2155791 1.7380145-.8157325.1443571-1.5936573-.3998465-1.7380145-1.2155791-.1443571-.8145869.3998465-1.5936573 1.2155791-1.7380145.8157325-.1443571 1.5936573.3998465 1.7380145 1.2155791z"/></svg>