<svg xmlns="http://www.w3.org/2000/svg" viewBox="0 0 445.46 155.79"><defs><style>.cls-1{fill:#f6cb65;}</style></defs><g id="Layer_2" data-name="Layer 2"><g id="Lines"><path class="cls-1" d="M440.77,80.4a4.51,4.51,0,0,0-.37-.75c-.18-.31-.4-.65-.63-1-.47-.7-1-1.43-1.51-2.25l.42.5a24.84,24.84,0,0,1-2.23-2.18,8.92,8.92,0,0,1-1.09-1.55,9.38,9.38,0,0,1-.73-1.69l1.08,1.33a10.87,10.87,0,0,1-2.91-2.49c-.39-.46-.73-.93-1-1.35s-.59-.86-.75-1a18.4,18.4,0,0,0-1.9-1.71A27.07,27.07,0,0,1,426.63,64l.36.32c-1-.74-1.84-1.49-2.64-2.16a18.53,18.53,0,0,0-2.28-1.71,3,3,0,0,1-.4-.31,7.4,7.4,0,0,0-1-.74l-.71-.46-.41-.28-.35-.25c-.31-.2-.83-.51-1.33-.81a11.46,11.46,0,0,1-1.78-1.28l-.19-.17h0c.12.1-.22-.16-.75-.37l-1-.43a5,5,0,0,1-1.52-1.08l1.76.8a4.38,4.38,0,0,1-1.84-.47,6.53,6.53,0,0,1-1.13-.72c-.31-.24-.57-.47-.78-.66s-.45-.37-.29-.26l-.28-.19a3.79,3.79,0,0,0-1.13-.57,13.53,13.53,0,0,1-2.19-1l.23.12a16,16,0,0,1-1.77-1l-.67-.42a4.28,4.28,0,0,0-.4-.22,1.45,1.45,0,0,1-.79-.47l-.15-.18a3.51,3.51,0,0,0-1.85-.92h-.07a2.12,2.12,0,0,1-.93-.41,6.58,6.58,0,0,0-1.31-.58,20.76,20.76,0,0,1-2.14-.9h0a1.69,1.69,0,0,1-.32-.19,19.33,19.33,0,0,0-3-1.49l.31.12c-1.15-.35-2.2-.76-3.2-1.14l-.74-.29c-.28-.1-.64-.27-.8-.33-.41-.17-.86-.33-1.33-.49l-1.49-.48c-.27-.09-.5-.15-.9-.3a9.15,9.15,0,0,1-1-.45,8.82,8.82,0,0,0-2.16-1l-.11,0-.1,0a20.79,20.79,0,0,1-2.35-.73,14.4,14.4,0,0,1-2.37-1.08l.66.27a21.58,21.58,0,0,1-2.36-.79,13.61,13.61,0,0,0-1.8-.57h0l-.29-.09c-1.09-.43-2.46-.72-4-1.21l-.47-.2-.21-.09-.43-.15-1.07-.32c-.76-.23-1.55-.45-2.5-.83l.61.17a14.07,14.07,0,0,1-2.64-.7,17.61,17.61,0,0,0-1.88-.59l.22,0a20.38,20.38,0,0,1-4-1c-.33-.12-.67-.26-1-.42l-.7-.33a10.88,10.88,0,0,0-1.39-.43c-.51-.13-1.06-.24-1.67-.36-.32-.06-.58-.13-.78-.15l-.84-.13c-.6-.08-1.25-.16-2-.33a6.7,6.7,0,0,1-2.57-1.09l.39.24a11.73,11.73,0,0,0-1.91-.65l-2.4-.59-.23-.07h0a6.17,6.17,0,0,0-1.75-.4,20.26,20.26,0,0,1-2.73-.37l.28.05c-1.63-.23-2.78-.64-3.88-.87l-.82-.15c-.34,0-.63-.12-.94-.18l-1.86-.39-1.86-.39-.83-.16-.88-.11a25.64,25.64,0,0,1-4.09-.72l.3.07c-1.42-.21-2.81-.6-4-.87l-.82-.17c-.25,0-.71-.12-1-.18l-2-.4-1.85-.38a5.66,5.66,0,0,0-.81-.12l-1-.14a36.41,36.41,0,0,0-3.61-.5l-.32,0h0c-1.56-.29-3.34-.47-5.12-.73l.41,0a11.85,11.85,0,0,1-1.68-.1c-.5-.06-1-.14-1.43-.22l-2.58-.48h-.08l-.23-.06a12.24,12.24,0,0,0-2.2-.4L292,19.2c-.91-.11-1.72-.19-2.62-.28s-1.82-.17-2.79-.32l.27,0c-1,0-2-.13-2.88-.23l-2.67-.3L280,18l-1.4-.15-2.71-.35h.41a31.76,31.76,0,0,1-5.87-.41c-1.81-.23-3.58-.47-5.24-.52h0a1.53,1.53,0,0,1-.3,0q-1.28-.23-2.58-.36c-.85-.09-1.75-.16-2.57-.18L257,16c-.95,0-1.92-.05-2.92-.14h.19c-1.57,0-3-.22-4.29-.34l-2-.17c-.62,0-1.27-.05-1.95-.06-1.35,0-2.88,0-4.2-.11s-2.82-.12-4.28-.28h.2c-1,0-2-.08-2.92-.12a18.38,18.38,0,0,0-2.59,0h-.3l-2.74-.17c-.91,0-1.82-.14-2.74-.12l-2.82,0a19.6,19.6,0,0,0-2.57.12h0a1.77,1.77,0,0,1-.46,0,41.27,41.27,0,0,0-5.36-.37h.14c-1,.06-1.95.07-2.85.1a12.72,12.72,0,0,0-2.46.26h0a2.09,2.09,0,0,1-.43,0,39,39,0,0,0-5.69.15h-.12c-1.27,0-2.65.13-4.07.17s-2.85-.06-4.17-.06c-.66,0-1.32,0-2,0s-1.36.06-2,.13c-1.32.13-2.67.31-4,.5h-.12l-2.79.12A17.67,17.67,0,0,0,182,16h-.11c-1.57.21-3.2.38-4.83.45s-3.1.28-4.64.41c-3.1.31-6.25.62-9.36,1L153.72,19c-3,.44-6.15,1.17-9.49,1.39l.2,0c-3.54.64-7,.92-10.17,1.73l-.18,0h0c-1.58.21-3.24.58-4.91,1s-3.38.75-5.16,1l.17,0c-3.33.88-6.72,1.59-10,2.27l.14,0c-3.71,1-7.29,1.73-10.78,2.77l-5.39,1.52c-1.83.51-3.5,1-5.26,1.55L90.15,33l-1.39.42-1.29.38c-1.7.53-3.42,1.15-5.19,1.78-3.52,1.23-7,2.48-10.41,3.77S65,42,61.6,43.47c-1.7.7-3.38,1.47-5.07,2.22L51.46,47.9c-1.59.71-3.2,1.6-5,2.43-.43.2-.94.43-1.31.58a5.64,5.64,0,0,0-.55.26l-.62.3-2.47,1.24c-1.62.83-3.25,1.73-4.84,2.62l-2.43,1.36c-.83.46-1.56.87-2.28,1.34l.22-.17a6.6,6.6,0,0,1-1.07.73l-.84.46a10.15,10.15,0,0,0-1.25.76h0a2.15,2.15,0,0,1-.55.31,4.28,4.28,0,0,0-1.17.59,13.65,13.65,0,0,0-1.22,1.07l.14-.14a10.58,10.58,0,0,1-3.52,2.78l.53-.35c-.48.45-1,.87-1.5,1.3A14.61,14.61,0,0,1,20,66.64l.37-.26c-.47.43-.86.76-1.19,1.09a5.31,5.31,0,0,0-.42.44c-.1.11-.16.25-.06.08l-.68.85a2.9,2.9,0,0,0-.28.34c-.15.18-.35.47-.64.81A5.67,5.67,0,0,1,16,71a6.64,6.64,0,0,1-1.4.72l.95-.61c-.5.52-.95.89-1.28,1.2a2.73,2.73,0,0,0-.51.57.17.17,0,0,1-.05.2l-.57.53a3.14,3.14,0,0,0-.58.69,16.73,16.73,0,0,1-1.06,1.58l-1,1.31c-.31.44-.59.84-.82,1.24a3.46,3.46,0,0,1-.22.31l0,0a2.89,2.89,0,0,0-.45.75,12.33,12.33,0,0,1-.9,1.72v0l-.1.13a4.18,4.18,0,0,0-.44.79,10.42,10.42,0,0,0-.44,1.2h0a2,2,0,0,1-.12.31c-.24.52-.5,1-.58,1.23a1.1,1.1,0,0,0-.08.55v.12a2.49,2.49,0,0,1-.26,1.08,3.93,3.93,0,0,0-.28.84A4.11,4.11,0,0,0,5.7,88c0,.14,0,.28,0,.31l-.18-.71a5.58,5.58,0,0,1,.33,2.79,7.81,7.81,0,0,1-.59,2.25l.13-.39a3.56,3.56,0,0,0,.13,1.89l0,1.24c0-.1,0,0,0,.21a4,4,0,0,0,.15.69,8.37,8.37,0,0,0,.28.85c.14.39.27.79.38,1.14.46,1.45.83,2.77,1.32,3.93.12.3.25.58.38.85l.17.35.26.42,1.13,1.87a29.49,29.49,0,0,0,2.26,3.34l-.32-.33a22.58,22.58,0,0,1,2.85,3,14.37,14.37,0,0,0,2.23,2.29l-.36-.23a22,22,0,0,1,3.6,2.64c1,.86,2,1.71,2.83,2.32a68.3,68.3,0,0,0,6.41,4c.29.15.45.25.78.4s.64.3.94.45c.62.32,1.22.65,1.79,1,1.15.63,2.25,1.25,3.31,1.73a12.68,12.68,0,0,0,1.6.63c.68.24,1.31.47,2,.73,1.27.51,2.49,1,3.67,1.57l1.77.76c.61.26,1.06.43,1.69.64L50.33,132c2.45.85,4.88,1.75,7.3,2.43l3.78,1.07c.65.19,1.28.38,2,.61s1.19.47,1.77.64a35.28,35.28,0,0,0,3.59.83,25.29,25.29,0,0,1,4.19,1.09l-.2-.06c1.37.4,2.78.77,4.19,1.1s2.86.65,4.22.89c.71.12,1.58.27,2.35.46s1.53.41,2.24.62a14.36,14.36,0,0,0,3.78.76h0l.28,0c1.37.2,2.77.46,4.12.75l3.94.86h.06l.22.06a18.48,18.48,0,0,0,3.8.88c1.36.18,2.85.31,4.36.56h0l.17,0a29.58,29.58,0,0,0,4,.69c1.42.17,2.93.27,4.54.61a50.87,50.87,0,0,0,8.35,1.06h0l.24,0c2.71.43,5.71.36,8.87.83l-.18,0c3,.21,6,.44,8.93.55h-.4a33.61,33.61,0,0,1,7.32.26c1.1.1,2,.08,3.24.09s2.33.06,3.48.11l3.42.14c.59,0,1,0,1.62,0s1.22,0,1.81.07a52.33,52.33,0,0,0,6.51.18h0a2.32,2.32,0,0,1,.59,0,22.21,22.21,0,0,0,4.17.32c1.43,0,2.92-.13,4.44-.26h.34c2.29.11,4.56.1,6.88,0l3.56-.15c1.22,0,2.42,0,3.6,0s2.33,0,3.46-.05l1.78-.08,1.8-.05c2.39-.06,4.68-.08,7-.27s4.79-.28,7.15-.38c1.2-.06,2.34-.1,3.5-.18l3.52-.24,3.57-.24c.63,0,1.1,0,1.69-.12l1.81-.15c2.39-.19,4.77-.27,7-.53h.16c3-.07,6.11-.8,9.55-.94h-.11c3.26-.33,6.39-.55,9.53-1.08s6.39-1.11,9.67-1.35c3-.33,6.23-1.15,9.5-1.47l9.44-1.59-.13,0c1.26-.32,2.34-.44,3.43-.62a27.4,27.4,0,0,0,3.05-.61l.17,0h0c1.25-.22,2.53-.49,3.8-.77l3.89-.91a63.71,63.71,0,0,0,7.5-1.84l.13,0h0c2.9-.69,5.73-1.38,8.49-2.29a1.22,1.22,0,0,1,.26-.06h0a26.48,26.48,0,0,0,4.36-1.09c1.48-.48,2.95-1.06,4.49-1.6,3.19-1.11,6.36-1.64,8.81-2.94a1.7,1.7,0,0,1,.35-.14h.06a56.47,56.47,0,0,0,9-3.34l.11,0,.09,0a38.27,38.27,0,0,0,4.29-1.92,24.71,24.71,0,0,1,5.11-1.91l-.33.1c3-1.22,6-2.5,8.77-4l.1,0,.08,0a51.37,51.37,0,0,0,8.19-4.13,1.69,1.69,0,0,1,.29-.17l.08,0c1.4-.63,2.76-1.27,4-2a19.12,19.12,0,0,0,3.41-2.22,2.78,2.78,0,0,1,.41-.29l0,0c1.28-.7,2.52-1.41,3.71-2.15a28,28,0,0,0,3.25-2.35l.19-.15,0,0c2.19-1.55,4.28-3.23,6.47-5l0,0a1,1,0,0,1,.17-.12,16.29,16.29,0,0,0,2.46-2c.79-.78,1.6-1.7,2.52-2.65l.57-.61.52-.6c.34-.42.68-.88,1-1.38a23.39,23.39,0,0,1,2.66-3.22l-.55.78c.55-1.15,1.13-2.14,1.69-3.11s1.11-1.87,1.58-2.77v0a1.77,1.77,0,0,1,.26-.39,4.24,4.24,0,0,0,.81-1.88l-.05.55a11.88,11.88,0,0,1,.17-2l.16-.86.15-.71,0-.11,0-.08a16.77,16.77,0,0,1,.77-2c.1-.21.14-.39.13-.32a1,1,0,0,0,0,.38,1.5,1.5,0,0,0,.31.7l-.41-.78a8.69,8.69,0,0,1-.32-2l0-.37a1.33,1.33,0,0,0,.39.61l-.76-1.71s0,0,0,0l0-.08a7.15,7.15,0,0,1-.4-.83,3.34,3.34,0,0,1-.21-1.19,2.93,2.93,0,0,1,.07-.67,3.2,3.2,0,0,1,.17-.55l.05,2a4.61,4.61,0,0,1-.23-.66l-.09-.33-.18-.62L401,68c-.26-.8-.54-1.58-.85-2.35A28.73,28.73,0,0,0,398,61.22c-.87-1.43-1.83-2.84-2.85-4.21-.51-.69-1-1.36-1.57-2l-.8-1-.39-.43-.17-.17-.05,0a1,1,0,0,0,.18.13l-.64-.6c-.34-.46-.6-.84-.83-1.12a3.34,3.34,0,0,0-.27-.3c-.06-.06-.07,0,.15,0l-.73-.4A14.6,14.6,0,0,1,388.81,50c-.12-.14-.19-.19-.09-.11a1.1,1.1,0,0,0,.44.15l-2-1.47a.74.74,0,0,0,.23.3c.06,0-.06,0-.32-.18a7.51,7.51,0,0,1-1.81-1.38l.2.19c0-.05-.56-.35-1.07-.65a10.7,10.7,0,0,1-.9-.62,4.15,4.15,0,0,1-.55-.51,3.31,3.31,0,0,1-.3-.36l-.12-.16a2.27,2.27,0,0,0-.59-.63,7,7,0,0,0-1-.59l-.64-.45c.15.13,0,0-.15-.08s-.35-.2-.55-.29c-.4-.2-.84-.39-1.29-.57l0,0a1.21,1.21,0,0,1-.2-.09,11,11,0,0,1-1.72-1.23,6.09,6.09,0,0,0-1-.69l-.05,0a1.75,1.75,0,0,1-.29-.18,5.17,5.17,0,0,0-1-.5l-.87-.33a6,6,0,0,1-1.23-.63l.53.27a20.55,20.55,0,0,1-3.61-1.76l.3.15a21.46,21.46,0,0,1-3.69-1.94l.61.27a14.24,14.24,0,0,1-2.18-.8,20.8,20.8,0,0,1-1.94-1.05,10.46,10.46,0,0,0-1.46-.74c-.54-.24-1.09-.45-1.71-.68l1.47,0a3.18,3.18,0,0,1-1.58.09,6.71,6.71,0,0,1-.78-.2,10.9,10.9,0,0,1-1.15-.47c-.68-.31-1.3-.65-1.88-.95l.52.19a11.68,11.68,0,0,1-2.47-.91l-1-.48c-.33-.16-.52-.24-.9-.4-.65-.29-1.26-.53-1.93-.79L347,28l0,0a2.23,2.23,0,0,1-.31-.15,9.73,9.73,0,0,0-3.36-1,2,2,0,0,1-.49-.16,16.7,16.7,0,0,0-1.85-.77,17.91,17.91,0,0,0-2-.49h0l-.18,0c-1.52-.49-3.05-1-4.35-1.35a41,41,0,0,1-4.77-1.25c-1.52-.49-3-1-4.42-1.4l-4.55-1.18-.07,0-.15,0A27.85,27.85,0,0,0,316,18.94l-.22-.05h0c-.77-.25-1.53-.46-2.3-.64S312,18,311.06,17.8l-2.55-.42a16.44,16.44,0,0,1-2.84-.72l.26.08c-1.64-.37-3.33-.66-5.07-1l.18,0a25.17,25.17,0,0,1-2.91-.5c-.9-.2-1.74-.39-2.57-.55a1.89,1.89,0,0,1-.36-.1l-.05,0a12.54,12.54,0,0,0-2.37-.65c-.42-.08-.86-.15-1.29-.21s-.84-.08-1.39-.14c-1.91-.19-4-.43-5.85-.79-.87-.14-1.78-.24-2.73-.34s-1.88-.16-2.95-.32-1.93-.27-2.91-.44c-.5-.08-1-.18-1.5-.28l-.76-.17-.61-.13c-.85-.16-1.75-.27-2.73-.39-.49-.07-1-.14-1.51-.23l-.72-.13-.57-.07c-.88-.1-1.82-.16-2.79-.23L263,10l-1.44-.14c-1-.1-2-.24-3-.37s-1.77-.25-2.72-.32S254,9,253,8.92s-2-.18-3.1-.36l-.2-.05a15.47,15.47,0,0,0-2.64-.44Q246.38,8,245.66,8l-.72,0a8.53,8.53,0,0,1-.87,0c-2.14-.12-4.2-.33-6.22-.49h.33a44.4,44.4,0,0,1-6.68-.33c-1-.1-2-.17-3.11-.25s-2.18-.18-3.4-.4l.22,0c-1-.09-2-.1-3.14-.11s-2.25,0-3.45-.06h.31a19.74,19.74,0,0,1-3.54-.06,23.8,23.8,0,0,1-3.45-.56l.44.06c-.92,0-2,0-3.12,0a26.54,26.54,0,0,1-3.59-.19l.34,0c-1.71,0-3.46,0-5.24-.17-.45,0-.9-.08-1.34-.13s-.76-.09-1.19-.13Q197,5,195.87,5c-1.55-.05-3.13.06-4.87.13a27.08,27.08,0,0,1-5.5-.23l.26,0c-.89,0-2,.06-3.19.12a15,15,0,0,1-4-.25l.54.05c-2.3,0-4.58.06-7,0a2.4,2.4,0,1,1,.17-4.8h0c2.17.09,4.48.06,6.76.05h0a2.16,2.16,0,0,1,.51.06,11,11,0,0,0,2.78.16C183.41.22,184.6.1,186,.16h0l.24,0a22.79,22.79,0,0,0,4.57.2c1.62-.06,3.4-.18,5.2-.12.9,0,1.79.08,2.66.16l2.49.26c1.57.12,3.19.15,4.84.14l.31,0h0a20.78,20.78,0,0,0,2.93.15c1.05,0,2.15,0,3.41,0a2.35,2.35,0,0,1,.37.05l.06,0a19.4,19.4,0,0,0,5.44.49h.31c1,0,2.12,0,3.25,0s2.3,0,3.55.13l.18,0h0c1.74.31,3.94.37,6.08.59a41.73,41.73,0,0,0,6,.31h.33c2.09.16,4.13.37,6.1.48l.68,0,.82,0c.55,0,1.11,0,1.68.1A21.55,21.55,0,0,1,251,3.9l-.2,0c1.63.3,3.55.34,5.53.54,1,.07,2.07.21,3,.34s1.88.26,2.76.34l1.42.14,1.4.11c.95.07,1.93.13,3,.24.23,0,.6.07.88.12l.69.12c.43.07.87.14,1.34.2.92.12,1.94.23,3,.43l.82.17.64.14L276.5,7c.91.15,1.84.28,2.79.42.8.11,1.8.19,2.76.29s2,.2,3,.38c1.88.34,3.63.54,5.54.73.39,0,1,.08,1.49.15s1.07.14,1.6.24a18,18,0,0,1,3.32.93l-.55-.16c.95.17,1.89.39,2.73.57a18.56,18.56,0,0,0,2.33.39l.18,0,.06,0c1.69.3,3.45.6,5.25,1l.31.09.07,0a12.5,12.5,0,0,0,2,.47l2.51.41,1.29.2,1.39.28c.93.21,1.85.46,2.74.75l-.38-.1a32.35,32.35,0,0,1,5.24,1.28l-.33-.1,4.66,1.19c1.71.45,3.2,1,4.69,1.44A37.12,37.12,0,0,0,335.52,19c1.89.45,3.33,1,4.81,1.44l-.29-.08a23.23,23.23,0,0,1,2.5.62A21.47,21.47,0,0,1,345,22l-.71-.23c.69.13,1.48.28,2.35.52a10.59,10.59,0,0,1,2.72,1.15l-.5-.24,2,.76c.68.26,1.45.55,2.11.85l.55.23.57.26,1,.47a7,7,0,0,0,1.42.53h0a3.15,3.15,0,0,1,.71.26c.61.32,1.15.6,1.64.83.24.11.47.2.61.25l.07,0-.09,0h-.16l-.27,0a1.53,1.53,0,0,0-.48.11l2,0c.61.22,1.29.48,2,.76a16.23,16.23,0,0,1,2.12,1.07l.73.42.68.34a8.43,8.43,0,0,0,1.36.49h0a3.19,3.19,0,0,1,.8.35c.5.31,1,.6,1.44.84a11.11,11.11,0,0,0,1.4.64,3.91,3.91,0,0,1,.41.2,15.61,15.61,0,0,0,2.71,1.33l.7.35c-.1-.06,0,0,.21.08l.78.29a9.57,9.57,0,0,1,2.3,1.17l-.45-.27a11,11,0,0,1,2,1.3,7.38,7.38,0,0,0,.92.69l-.31-.15c.54.22,1.08.45,1.65.72l.9.47a6.26,6.26,0,0,1,1.27.94l-.83-.59a11.56,11.56,0,0,1,1.84,1.06,7.87,7.87,0,0,1,1.77,1.79l.12.17,0,0-.07-.09,0,0a2.94,2.94,0,0,0,.35.23l.66.39a8.15,8.15,0,0,1,1,.7l0,0,.23.22a2,2,0,0,0,.57.41,6.29,6.29,0,0,1,1.11.72,4.69,4.69,0,0,1,1.34,1.82l-2.49-1.85a4.4,4.4,0,0,1,2,.69,5.74,5.74,0,0,1,1,.87,6.66,6.66,0,0,0,.71.69l-.92-.51a5,5,0,0,1,1.65,1,7.53,7.53,0,0,1,.85.88c.45.54.77,1,1,1.38l-.81-.75a4.81,4.81,0,0,1,.52.4l.2.19c.14.13.23.23.32.33l.53.56c.32.37.63.73.93,1.1.6.72,1.17,1.46,1.73,2.2,1.12,1.49,2.18,3,3.17,4.65a34.4,34.4,0,0,1,2.61,5.18c.35.89.68,1.78,1,2.68l.42,1.35.2.66.09.31s.1.27-.05-.09l.06,2.34a1.15,1.15,0,0,0,.1-.33,2.16,2.16,0,0,0-.08-1.2c-.11-.26,0-.06.13.22a5.53,5.53,0,0,1,.45,1.13,5.39,5.39,0,0,1,.2,1.28l-.89-2A4.17,4.17,0,0,1,408,72.05a8.1,8.1,0,0,1,.16,1.12,4.74,4.74,0,0,0,.09.79l-.46-.9a3.93,3.93,0,0,1,.73,1.7,4.18,4.18,0,0,1,0,1.42A6.75,6.75,0,0,1,408,77.7a13.53,13.53,0,0,0-.54,1.35l0-.22-.17.8-.11.64a6.19,6.19,0,0,0-.1,1,2.88,2.88,0,0,1,0,.59v0a9.79,9.79,0,0,1-1.9,4.22l.31-.47c-.56,1.07-1.14,2-1.69,3s-1.06,1.85-1.45,2.67v0a2.81,2.81,0,0,1-.6.83,18.45,18.45,0,0,0-2,2.5c-.37.51-.76,1-1.21,1.61-.22.27-.45.55-.69.82s-.54.58-.71.76c-.8.83-1.63,1.78-2.61,2.76a21.28,21.28,0,0,1-3.32,2.73l.21-.16c-2.16,1.73-4.41,3.51-6.78,5.15l.24-.18a32.2,32.2,0,0,1-4,2.84c-1.33.82-2.67,1.57-4,2.29l.5-.34a24.33,24.33,0,0,1-4.45,2.88c-1.49.77-3,1.43-4.42,2.06l.43-.23a55.2,55.2,0,0,1-9.17,4.47l.22-.1c-3.09,1.55-6.2,2.84-9.3,4.08a2.47,2.47,0,0,1-.36.11l-.09,0a19.69,19.69,0,0,0-4.05,1.51,39.19,39.19,0,0,1-5,2.13l.3-.11a62.4,62.4,0,0,1-9.79,3.53l.69-.25a27.41,27.41,0,0,1-5.08,1.88c-1.6.45-3.09.83-4.42,1.29a50.77,50.77,0,0,1-9.75,2.86l.55-.12c-3,1-6,1.68-8.87,2.37l.27-.08c-1.38.46-2.75.81-4.1,1.13s-2.7.59-4,.84l-3.81.88c-1.32.29-2.65.57-4.05.81l.36-.08a32.34,32.34,0,0,1-3.66.73l-1.61.25c-.5.08-1,.17-1.3.25h0l-.24.05-9.71,1.6c-3.09.29-5.95,1.05-9.65,1.47-1.59.12-3,.3-4.59.54s-3.18.52-4.74.74c-3.27.55-6.66.79-9.75,1.1h-.22c-2.75.07-6,.82-9.55.93l.28,0c-2.57.31-4.91.39-7.21.58l-1.7.15c-.58.08-1.37.12-1.89.14l-3.49.24-3.56.26-3.61.21c-2.35.13-4.69.26-7,.45s-4.89.29-7.22.37l-1.74.06-1.76.1c-1.25.07-2.46.08-3.65.1s-2.34,0-3.48.07l-3.52.18c-2.41.11-4.88.14-7.33,0H178c-1.57.15-3.17.29-4.85.32a27.74,27.74,0,0,1-5.13-.36l.68,0a56.3,56.3,0,0,1-7.2-.12l-1.61-.06c-.53,0-1.26,0-1.8-.05l-3.43-.17c-1.13-.05-2.25-.1-3.36-.13a36.1,36.1,0,0,1-3.63-.18,29.77,29.77,0,0,0-6.22-.41,2.2,2.2,0,0,1-.44,0H141c-3.06-.19-6.07-.52-9-.73h0l-.23,0c-2.64-.43-5.59-.44-8.84-.9l.35,0a54.8,54.8,0,0,1-9.2-1.08c-2.36-.45-5.59-.43-8.82-1.26l.26.06c-1.3-.2-2.67-.31-4.21-.49a24.33,24.33,0,0,1-4.81-1.06l.4.1-4-.82c-1.28-.26-2.52-.47-3.81-.65l.42,0a19.13,19.13,0,0,1-5.2-.9c-.72-.2-1.39-.39-2-.54s-1.19-.24-2-.36c-1.6-.26-3.07-.56-4.57-.92s-3-.74-4.48-1.18h0l-.25-.08a18.91,18.91,0,0,0-3.25-.81,40.72,40.72,0,0,1-4.11-1c-.7-.19-1.59-.58-1.94-.68-.52-.18-1.14-.37-1.74-.54l-3.75-1.06c-2.65-.74-5.13-1.65-7.62-2.52l-3.67-1.29c-.6-.2-1.42-.52-2-.77l-1.84-.79c-1.21-.52-2.37-1-3.52-1.49-.56-.23-1.15-.45-1.69-.63l-.5-.18-.55-.2c-.37-.14-.71-.3-1-.45-1.35-.62-2.53-1.29-3.67-1.91-.56-.31-1.11-.61-1.64-.88l-.81-.39c-.26-.12-.7-.35-1-.5-1.23-.65-2.43-1.35-3.59-2.08s-2.22-1.44-3.37-2.22c-1.3-.92-2.29-1.83-3.27-2.66a17.59,17.59,0,0,0-2.61-2h0a2.7,2.7,0,0,1-.4-.25,19.47,19.47,0,0,1-3.07-3.12,19,19,0,0,0-2.21-2.39h0a2.64,2.64,0,0,1-.37-.38,33.83,33.83,0,0,1-2.68-3.93l-1.12-1.87-.31-.52-.34-.64c-.19-.39-.36-.78-.52-1.17A45,45,0,0,1,1.3,99.91L1,99c-.13-.36-.29-.81-.41-1.25a10.58,10.58,0,0,1-.3-1.49,5.92,5.92,0,0,1,.08-2.06l0,1.38A10.7,10.7,0,0,1,0,93.44,7.71,7.71,0,0,1,.24,91v0a3.19,3.19,0,0,1,.13-.37,2.44,2.44,0,0,0,.19-.72c0-.23,0-.42.05-.18l-.2-.79a6.8,6.8,0,0,1,0-1.28A9.21,9.21,0,0,1,.58,86.5a8.61,8.61,0,0,1,.73-2.14L1,85.68A7.26,7.26,0,0,1,1.1,84.4a6.27,6.27,0,0,1,.35-1.31c.31-.78.56-1.2.75-1.61l-.14.35a16.36,16.36,0,0,1,.65-1.74,9,9,0,0,1,1.13-1.94l-.12.17a8.06,8.06,0,0,0,.49-1,7.92,7.92,0,0,1,1.2-1.91l-.27.37c.35-.59.72-1.13,1.08-1.63L7.29,72.7a14.82,14.82,0,0,0,.83-1.25,8.07,8.07,0,0,1,1.7-1.92l-.68.79a8.09,8.09,0,0,1,1.59-1.9c.46-.41.82-.72,1-1a2.36,2.36,0,0,1,.63-.47l.43-.2a.76.76,0,0,0,.39-.32l.53-.67a6.46,6.46,0,0,1,1.08-1.1l-.82,1a5.78,5.78,0,0,1,1-1.39c.28-.3.53-.54.77-.76L17,62.48a1.54,1.54,0,0,1,.36-.27l.12-.08a11.61,11.61,0,0,0,1.15-.82c.4-.33.82-.69,1.21-1.06a2.5,2.5,0,0,1,.58-.4l.17-.09a5.47,5.47,0,0,0,1.74-1.46l.16-.17.05,0a16.55,16.55,0,0,1,1.74-1.53,9.91,9.91,0,0,1,2.44-1.29l-.85.48a13.49,13.49,0,0,1,2-1.24l.72-.4a3,3,0,0,0,.27-.17l.32-.24c.87-.58,1.78-1.1,2.58-1.54l2.41-1.38,2.47-1.38,2.51-1.34,2.51-1.29.63-.31c.24-.12.52-.27.75-.36l.63-.28.58-.26c1.55-.74,3.2-1.66,5-2.49l5.14-2.29c1.71-.77,3.42-1.53,5.16-2.25Q64.71,36.35,70,34.39c3.5-1.3,7.07-2.58,10.57-3.78,1.73-.6,3.52-1.25,5.4-1.82l1.4-.4L88.62,28l2.64-.83C93,26.6,95,26.08,96.73,25.6l5.34-1.48c3.68-1.07,7.44-1.8,10.82-2.72l.21,0h0c3.35-.66,6.57-1.33,9.8-2.16l.23-.05h0c1.57-.26,3.22-.62,4.91-1s3.41-.75,5.34-1l-.38.07c3.75-.92,7.3-1.17,10.52-1.75l.33,0h0c2.81-.17,5.82-.84,9.1-1.31L162.52,13c1.57-.19,3.14-.37,4.72-.52L172,12c1.62-.13,3.19-.34,4.85-.39,1.46-.06,2.91-.21,4.45-.4l-.23,0a24.34,24.34,0,0,1,3.24-.34l2.76-.1-.23,0c1.35-.17,2.74-.36,4.21-.5l1.14-.08,1-.05c.76,0,1.52,0,2.26,0,1.49,0,2.87.11,4,.08s2.61-.15,4.2-.16l-.25,0a45.32,45.32,0,0,1,6.32-.15l-1,.1a16.53,16.53,0,0,1,3.44-.4c1,0,1.91,0,2.73-.08h.25c1,0,1.92,0,2.91.11a28.29,28.29,0,0,1,3.13.33h-.87a25.17,25.17,0,0,1,3.18-.16l2.77,0c1,0,1.93.09,2.89.13l2.89.17h-.46a22.58,22.58,0,0,1,3.26,0c1,0,1.95.1,2.78.11h.08l.21,0c1.25.14,2.55.21,3.92.26s2.63.12,4.05.11c.7,0,1.45,0,2.22.06l2.13.18c1.43.13,2.77.31,3.93.32h.22c.82.07,1.69.1,2.57.12h2.77c1,0,2,.09,3,.19s1.95.24,2.93.41l-.38,0c2,.06,3.89.32,5.71.54a29.31,29.31,0,0,0,5,.37h0a3.34,3.34,0,0,1,.45,0l2.67.34,1.28.14,1.36.11,2.73.3c.88.09,1.74.18,2.5.2h0a1.45,1.45,0,0,1,.3,0c.79.12,1.63.2,2.53.28s1.85.18,2.71.29l2.64.23a16.1,16.1,0,0,1,3.12.58l-.33-.08,2.63.49,1.18.18c.37,0,.73.06.93.06h0a1.88,1.88,0,0,1,.41,0c1.69.25,3.41.41,5.33.76l-.38,0a18.49,18.49,0,0,1,2.25.24l1.88.31.9.11a10.61,10.61,0,0,1,1.13.17l2,.4,1.86.38.9.15c.39.06.75.14,1.1.22,1.38.32,2.49.62,3.64.79l.29.06h0a21.83,21.83,0,0,0,3.3.54l1,.12c.43.06.72.13,1,.19l1.83.38,1.83.37c.3.06.62.14.91.17l1,.19c1.35.29,2.61.68,3.45.78h0l.27.05a15.08,15.08,0,0,0,2.08.25,11.94,11.94,0,0,1,3,.69l-.28-.09,2.42.58a16.27,16.27,0,0,1,2.79,1l.19.09a.71.71,0,0,1,.22.15,2.39,2.39,0,0,0,.73.25c.43.09,1,.17,1.57.25l.94.13c.41.05.73.14,1,.18.57.12,1.21.24,1.87.4a13.91,13.91,0,0,1,2.06.65c.33.12.81.36.94.42l.64.26a15.53,15.53,0,0,0,3,.72h0l.21,0c.9.21,1.72.5,2.4.73a9.06,9.06,0,0,0,1.68.46,2.83,2.83,0,0,1,.59.15l0,0c.52.21,1.25.42,2,.64l1.21.36a9.17,9.17,0,0,1,1.56.63l-.47-.2c1.21.39,2.65.68,4.24,1.28l-.32-.1a19.75,19.75,0,0,1,2.42.75,15.6,15.6,0,0,0,1.84.63,2.57,2.57,0,0,1,.66.28,11.57,11.57,0,0,0,1.56.71c.58.21,1.22.41,1.78.55l-.21,0a12,12,0,0,1,3.7,1.5,3.81,3.81,0,0,0,.48.23l.62.21,1.56.51c.54.18,1.09.38,1.67.62.33.14.45.2.67.28l.76.3c1,.38,1.93.75,2.82,1h0l.28.11a21.17,21.17,0,0,1,3.79,2l-.33-.2c.48.24,1,.45,1.68.7a10.8,10.8,0,0,1,2.44,1.19l-1-.42a8.91,8.91,0,0,1,2.44.83,7.48,7.48,0,0,1,2.19,1.65L406,45a10,10,0,0,1,1.15.58l.8.51c.48.3.94.59,1.22.73l.21.11h0a7.65,7.65,0,0,0,1.43.68c.3.12.69.27,1.13.49a7.66,7.66,0,0,1,1.27.82l-.28-.19a6.53,6.53,0,0,1,1,.81l.52.44a3.23,3.23,0,0,0,.29.2c.05,0,0,0-.2,0l1.76.81c-.21-.21-.13-.1.05,0l.77.35a9.94,9.94,0,0,1,1.1.54,5.2,5.2,0,0,1,1.36,1.1l-.17-.19a6.4,6.4,0,0,0,1,.69c.46.29.93.55,1.56,1l.34.24.3.2.71.46a12.94,12.94,0,0,1,1.7,1.29l-.4-.3c2.18,1.36,3.75,3,5.23,4.09a3.73,3.73,0,0,1,.36.32,20.06,20.06,0,0,0,2,1.77,20.79,20.79,0,0,1,2.52,2.34c.47.58.72,1,1,1.38s.53.74.78,1a6,6,0,0,0,1.61,1.4h0A2.42,2.42,0,0,1,439.21,70a4.44,4.44,0,0,0,.9,1.63,20.45,20.45,0,0,0,1.8,1.74h0a2.14,2.14,0,0,1,.41.49c.43.68.93,1.38,1.45,2.16.26.39.52.8.79,1.25a9.06,9.06,0,0,1,.76,1.64,2.4,2.4,0,1,1-4.53,1.57Z"/></g></g></svg>