<svg xmlns="http://www.w3.org/2000/svg" viewBox="0 0 454.15 143.4"><defs><style>.cls-1{fill:#f9c94d;}</style></defs><g id="Layer_2" data-name="Layer 2"><g id="Lines"><path class="cls-1" d="M449.44,93.86a5.34,5.34,0,0,0-.31-.65c-.16-.29-.35-.6-.56-.93-.43-.66-.9-1.36-1.38-2.14l.41.5a25.92,25.92,0,0,1-2.09-2.1,8.64,8.64,0,0,1-1-1.52,9.26,9.26,0,0,1-.67-1.69l1.05,1.38a10.92,10.92,0,0,1-2.77-2.46c-.37-.46-.69-.92-1-1.34s-.55-.83-.7-1a18.3,18.3,0,0,0-1.8-1.69A22.61,22.61,0,0,1,436.23,78l.35.32c-1.92-1.48-3.29-3-4.76-3.88a3.07,3.07,0,0,1-.35-.28l0,0a6.85,6.85,0,0,0-1-.76l-.69-.48-.4-.27-.34-.25c-.3-.22-.8-.53-1.29-.84A11.73,11.73,0,0,1,426,70.28l-.18-.19c.07.08,0,0-.13-.08a6.73,6.73,0,0,0-.62-.32c-.26-.13-.57-.26-.94-.46a4.79,4.79,0,0,1-1.46-1.09l1.61.83a4.73,4.73,0,0,1-1.7-.52,7.35,7.35,0,0,1-1.09-.73c-.3-.24-.56-.47-.77-.66s-.43-.38-.29-.27l-.26-.2A4.29,4.29,0,0,0,419,66a14.39,14.39,0,0,1-2.12-1.1l.21.12a17.76,17.76,0,0,1-1.71-1.06l-.66-.43c-.19-.12-.38-.22-.42-.24a2.11,2.11,0,0,1-.87-.62v0a4,4,0,0,0-1.9-1h0a2.15,2.15,0,0,1-.86-.41,7.92,7.92,0,0,0-1.34-.65c-.63-.27-1.36-.57-2.1-1h0l-.3-.19A19,19,0,0,0,404,57.79l.28.12-3.15-1.29c-.5-.22-1.08-.44-1.53-.66s-.86-.38-1.33-.55l-1.48-.55-.87-.33c-.39-.17-.67-.32-.95-.47a9.63,9.63,0,0,0-2.22-1.1l-.12,0-.07,0c-.82-.25-1.54-.51-2.3-.82a16.72,16.72,0,0,1-2.32-1.16l.6.28c-.89-.28-1.66-.62-2.32-.89a15.81,15.81,0,0,0-1.83-.66h0l-.26-.09c-1.11-.48-2.48-.86-4-1.41l-.13,0a1.35,1.35,0,0,1-.29-.16s-.37-.17-.69-.29l-1.06-.37c-.76-.27-1.54-.52-2.47-.93l.55.17a14,14,0,0,1-2.58-.82c-.73-.29-1.33-.52-1.91-.69l.19,0a23.55,23.55,0,0,1-4-1.19c-.33-.14-.66-.29-1-.46s-.47-.25-.71-.36a11.15,11.15,0,0,0-1.42-.51c-.52-.16-1.07-.3-1.68-.46-.32-.08-.58-.16-.79-.2l-.85-.17c-.6-.13-1.25-.25-2-.45a7.33,7.33,0,0,1-2.49-1.16l.37.23a13.11,13.11,0,0,0-2-.75l-2.39-.71-.22-.08h0a7.38,7.38,0,0,0-1.82-.52,21.83,21.83,0,0,1-2.72-.54l.25.06c-1.59-.32-2.74-.78-3.87-1.08l-.83-.2c-.33-.07-.63-.16-.94-.24l-1.87-.49-1.86-.5c-.31-.08-.63-.17-.85-.21l-.89-.17a29.94,29.94,0,0,1-4.07-.95l.27.07c-1.41-.3-2.79-.75-4-1.09L325.8,32l-1.9-.49a7.19,7.19,0,0,0-.93-.21l-1-.2c-1.41-.29-2.63-.64-3.67-.74l-.18,0-.13,0-5.17-1.06.36.05a11.82,11.82,0,0,1-1.65-.22c-.5-.09-1-.19-1.43-.3l-2.6-.64-.07,0a.66.66,0,0,1-.2-.06,13.54,13.54,0,0,0-2.27-.54l-2.71-.43-5.46-1,.24,0-5.55-.91-5.54-1,.37,0a36.82,36.82,0,0,1-5.9-.82l-5.32-.88-.27,0h0c-.86-.21-1.74-.39-2.62-.54s-1.78-.27-2.63-.36l-5.75-.58.17,0c-1.57-.14-3-.43-4.33-.64l-2-.31c-.64-.09-1.31-.15-2-.21-1.38-.1-2.9-.25-4.3-.45L247,18.91l.17,0c-1-.09-2-.23-2.95-.33a21.25,21.25,0,0,0-2.67-.18h0l-.23,0L238.52,18c-.93-.1-1.86-.27-2.79-.33l-2.86-.26a21.83,21.83,0,0,0-2.66-.09h0a1.81,1.81,0,0,1-.4,0,47.27,47.27,0,0,0-5.46-.76h.12c-1,0-2-.09-2.9-.13a14.31,14.31,0,0,0-2.56,0h-.43a38.21,38.21,0,0,0-4-.28c-.7,0-1.33,0-2.15,0s-1.35-.06-2.05-.08c-1.37,0-2.91-.11-4.3-.28s-2.7-.27-4.06-.29l-16.75.07c-5.56,0-11.1.11-16.69.34-2.77.12-5.6.15-8.31.34s-5.57.5-8.51.45h.17c-3.63.31-7.16.29-10.48.79h-.2c-1.64.07-3.36.28-5.09.48s-3.49.43-5.31.56H131l-6.22.76-3.12.39c-.51.06-1,.12-1.5.21l-1.58.24-6.17.88c-2,.3-4.08.69-6.13,1-4.15.67-8.19,1.54-12.29,2.3-2,.34-3.94.82-6,1.3l-6.07,1.43c-8.07,1.88-16,4.11-24,6.58l-2.95.9c-.94.3-1.9.64-2.89,1s-2,.71-3.07,1-1.92.68-2.88,1c-1.91.73-3.85,1.4-5.75,2.17s-3.77,1.56-5.63,2.35L35,42a6.78,6.78,0,0,1-1.13.58l-.88.34a9.11,9.11,0,0,0-1.33.6h0a2.53,2.53,0,0,1-.55.22,5,5,0,0,0-1.25.45,11.67,11.67,0,0,0-1.3.92l.15-.13a11,11,0,0,1-3.76,2.26l.55-.26A20.73,20.73,0,0,1,22,49.08l.39-.21c-.5.36-.92.63-1.28.9a5.78,5.78,0,0,0-.46.36c-.11.09-.18.22,0,0l-.81.79a2.76,2.76,0,0,0-.3.28c-.16.15-.4.4-.74.7a6.2,6.2,0,0,1-2.65,1.35l1-.46c-.55.43-1,.73-1.38,1a5.42,5.42,0,0,0-.53.43l-.72.66a2.23,2.23,0,0,0-.61.54c-.25.28-.71.88-1.2,1.36l-2,2.15-.27.29,0,0a2.62,2.62,0,0,0-.47.59,9.82,9.82,0,0,1-1.06,1.53l0,0-.11.11a3,3,0,0,0-.46.62,10.76,10.76,0,0,0-.51,1h0a2.27,2.27,0,0,1-.17.31c-.29.46-.58.88-.66,1l0,.12a1,1,0,0,0,0,.19v0a2.61,2.61,0,0,1-.41,1.26,2.64,2.64,0,0,0-.3.63,2.7,2.7,0,0,0-.09.36,1.29,1.29,0,0,0,0,.19l-.16-.8A5.15,5.15,0,0,1,6,69.29a7.08,7.08,0,0,1-.81,2.11L5.4,71a1.57,1.57,0,0,0-.09.56,3.69,3.69,0,0,0,.11.9l-.08,1.37c.06-.18,0-.12,0,0a5.06,5.06,0,0,0,.1.58c.06.24.12.46.23.78L6,76.3a35.22,35.22,0,0,0,1.08,3.64c.1.26.21.53.32.76a6.19,6.19,0,0,0,.39.72l1,1.76a25.28,25.28,0,0,0,2,3.11L10.52,86a21.85,21.85,0,0,1,2.7,3,14,14,0,0,0,2.1,2.24L15,91a22.56,22.56,0,0,1,3.52,2.71c1,.88,1.92,1.74,2.79,2.36a72.93,72.93,0,0,0,6.35,4.13c.42.25,1.15.58,1.74.92l1.74,1c1.13.66,2.21,1.3,3.26,1.81l.77.35.89.34q1,.39,1.89.81c1.25.56,2.44,1.14,3.61,1.7l1.74.82.82.36.9.36,3.64,1.44,3.63,1.44c.62.25,1.19.48,1.77.68l1.8.63,3.74,1.25c.65.22,1.25.44,2,.71s1.15.51,1.73.7c1.1.39,2.31.7,3.58,1A26.78,26.78,0,0,1,71,117.8l-.18-.07c1.38.48,2.79.92,4.21,1.33s2.86.81,4.25,1.13c.71.16,1.57.36,2.33.6s1.53.49,2.24.73a15.57,15.57,0,0,0,3.86,1h0a2,2,0,0,1,.24,0c1.38.29,2.77.63,4.13,1l4,1.08,0,0a.6.6,0,0,1,.19.06,22.25,22.25,0,0,0,3.87,1.11c1.37.27,2.87.5,4.37.84h0l.16,0a31.52,31.52,0,0,0,4.1.94c1.43.26,3,.47,4.55.9a56.78,56.78,0,0,0,8.46,1.61l.23,0c1.37.29,2.83.52,4.33.71s3,.41,4.63.74l-.16,0q4.51.63,9.05,1.18h-.35a37.58,37.58,0,0,1,7.37.77c1.11.17,2.08.23,3.29.34l3.48.36,3.47.36c.58.06,1.15.12,1.73.15s1.23.11,1.82.19a60.05,60.05,0,0,0,6.66.67h0a2.85,2.85,0,0,1,.52.06,24.41,24.41,0,0,0,4.28.63c1.47.1,3,.11,4.56.11h.3c2.33.29,4.66.46,7,.55l3.62.14c1.24.07,2.46.16,3.66.25s2.38.18,3.54.23l1.81.06,1.83.1c2.43.14,4.78.29,7.13.31,4.84.15,9.71.32,14.48.39l3.6.08c.6,0,1.2,0,1.77,0h1.85c2.44,0,4.86.14,7.16.08h.15c1.93.1,3.92,0,6-.09,1,0,2.1-.06,3.17,0,.53,0,.95,0,1.48,0h1.55c2,0,4.06,0,6.07-.13s4.06-.27,6.13-.4c1-.06,2.08-.12,3.13-.14l1.56,0c.51,0,1,0,1.47,0,2-.1,4-.33,6.11-.46l1.57-.08c.53,0,1,0,1.53-.06l3-.23,6.08-.44-.12,0c1.29-.2,2.39-.22,3.51-.3a30.26,30.26,0,0,0,3.18-.32h.16l7.94-.93a73.42,73.42,0,0,0,7.79-1.09H306l.08,0,8.81-1.42h.1l.16,0a51.85,51.85,0,0,0,9.22-1.77c3.31-.76,6.55-1,9.2-2a2,2,0,0,1,.33-.09H334a61.77,61.77,0,0,0,9.42-2.35l.11,0,.08,0a39.24,39.24,0,0,0,4.54-1.42,26.66,26.66,0,0,1,5.28-1.32l-.31,0c3.14-.87,6.26-1.81,9.23-2.94l.08,0,.09,0a55,55,0,0,0,8.65-3.13,1.88,1.88,0,0,1,.3-.12l.08,0c1.45-.46,2.88-1,4.23-1.46a19.26,19.26,0,0,0,3.67-1.77,2.82,2.82,0,0,1,.42-.22l.05,0c1.33-.53,2.65-1.07,3.9-1.65a26.75,26.75,0,0,0,3.5-1.89l.24-.14q3.44-2,6.93-4l.13-.08.08,0a14.75,14.75,0,0,0,2.6-1.59c.85-.64,1.74-1.4,2.74-2.2l.63-.5.56-.5c.38-.36.75-.74,1.16-1.17a22.41,22.41,0,0,1,3-2.75l-.67.73c.66-1,1.32-1.88,1.95-2.71s1.25-1.61,1.78-2.37h0a3.09,3.09,0,0,1,.33-.39,3.11,3.11,0,0,0,.87-1.48l-.11.61a10.36,10.36,0,0,1,.32-1.87l.23-.79.2-.62,0-.12,0-.09a15.23,15.23,0,0,1,.94-1.81c.11-.17.15-.31.11-.18a1.45,1.45,0,0,0,0,.53,1.89,1.89,0,0,0,.33.83l-.4-.85a7.58,7.58,0,0,1-.22-2c0-.2,0-.33,0-.25a1.45,1.45,0,0,0,.42.75l-.74-1.87a.84.84,0,0,0,0,.1s0,.08,0,0a6.92,6.92,0,0,1-.37-.81,3.24,3.24,0,0,1-.16-1.29,3.19,3.19,0,0,1,.14-.71,4.1,4.1,0,0,1,.24-.56l-.1,2.2a4.4,4.4,0,0,1-.3-2.12l0-.29a1,1,0,0,0,.05.29l1-2.76a2.08,2.08,0,0,0-.32.27,2.31,2.31,0,0,0-.16.19,2,2,0,0,0-.15.26,1.3,1.3,0,0,0-.1.26.9.9,0,0,0,0,.4,1.19,1.19,0,0,0,.47.76l.43.23a4.16,4.16,0,0,1-1.21-.77,3.45,3.45,0,0,1-1-1.78,4.76,4.76,0,0,1-.11-.89,1.06,1.06,0,0,0,.1.28l.17.3a4.17,4.17,0,0,1-.57-1.26,6.92,6.92,0,0,1-.16-.75,1,1,0,0,0,.15.32.81.81,0,0,0,.25.26l-.95-1.22-.29-.86s0,0,.07.1a.67.67,0,0,0,.13.13l-.8-3.07a1.74,1.74,0,0,0-.11,1.09,1,1,0,0,0,.09.23,5.51,5.51,0,0,0-.57-.65l-.6-2.12a1.85,1.85,0,0,0,0,.71,2.39,2.39,0,0,0,.35.85c.1.13.17.2.23.27l.2.17a1,1,0,0,0,.16.1c.07,0-.22-.09-.58-.27A4.18,4.18,0,0,1,405,69.82a3.94,3.94,0,0,1-.74-1.71l1.19-2.51a2.23,2.23,0,0,0-.87.91,3.54,3.54,0,0,0-.17.47,2,2,0,0,0-.05.36,1,1,0,0,0,0,.25l0,.16a.93.93,0,0,0,.05.2c.06.17.06.15.06.15s-.08-.06.07,0l-.28-.17a14.27,14.27,0,0,1-1.45-1.28,6.09,6.09,0,0,0-.87-.76l0,0a2.36,2.36,0,0,1-.59-.59c-.32-.46-.56-.82-.77-1.08a2.84,2.84,0,0,0-.25-.28s-.05,0,.12.05l-.67-.41a12,12,0,0,1-1.13-1.12c-.12-.14-.16-.16-.07-.09a1.1,1.1,0,0,0,.33.13L397.1,61a1,1,0,0,0,.26.38,1.64,1.64,0,0,0-.34-.21,7.69,7.69,0,0,1-1.73-1.38l.2.2s-.17-.13-.36-.25l-.68-.42c-.25-.17-.53-.35-.86-.62a4.68,4.68,0,0,1-.53-.5,4.79,4.79,0,0,1-.31-.39l-.11-.16a2.34,2.34,0,0,0-.56-.6,6.17,6.17,0,0,0-1-.61l-.61-.46c.15.14,0,0-.16-.09s-.35-.21-.55-.31c-.4-.21-.83-.42-1.27-.61l0,0-.18-.09a12.44,12.44,0,0,1-1.67-1.24,6,6,0,0,0-1-.72l-.05,0-.26-.17a4.88,4.88,0,0,0-1.06-.55l-.85-.36a6.35,6.35,0,0,1-1.18-.65l.48.26a21.94,21.94,0,0,1-3.52-1.86l.28.15a22.27,22.27,0,0,1-3.6-2l.55.27A16.27,16.27,0,0,1,374.3,47c-.71-.36-1.28-.71-1.9-1.1a10.51,10.51,0,0,0-1.46-.8c-.54-.26-1.09-.49-1.69-.74l1.32.11a3.26,3.26,0,0,1-1.47,0,6.19,6.19,0,0,1-.75-.23,10.93,10.93,0,0,1-1.12-.5c-.67-.33-1.28-.69-1.85-1l.47.19a12.74,12.74,0,0,1-2.41-1l-1-.52c-.32-.16-.52-.27-.89-.43l-3.92-1.72-.06,0a1.43,1.43,0,0,1-.27-.15,11.53,11.53,0,0,0-3.4-1.22h0a2,2,0,0,1-.43-.16,17.4,17.4,0,0,0-1.86-.85c-.58-.22-1.27-.41-2-.61l-.17-.06c-1.45-.51-2.94-1.07-4.36-1.56a45,45,0,0,1-4.76-1.5l-4.41-1.61-4.55-1.42-.05,0-.14,0a30.87,30.87,0,0,0-4.5-1.36,1.39,1.39,0,0,1-.19-.06h0c-.77-.29-1.53-.54-2.31-.76s-1.54-.39-2.45-.58l-2.56-.58a17.68,17.68,0,0,1-2.8-.86l.23.09-5.1-1.28.15,0a26.45,26.45,0,0,1-2.88-.66c-.91-.25-1.75-.5-2.59-.7a1.51,1.51,0,0,1-.32-.11l-.05,0a14.94,14.94,0,0,0-2.42-.79c-.44-.11-.88-.2-1.32-.28s-.88-.14-1.4-.24c-1.95-.39-4-.76-5.89-1.16s-3.68-.62-5.72-1l-3-.68-1.48-.34-.74-.17-.63-.17c-.86-.21-1.79-.38-2.77-.57-.49-.09-1-.19-1.51-.31l-.72-.17c-.2-.05-.35-.07-.6-.12-.9-.15-1.85-.28-2.83-.42s-2-.31-2.94-.45-2-.37-3-.57-1.8-.34-2.77-.48c-1.87-.32-3.84-.49-6-1l-.16,0h0a18.82,18.82,0,0,0-2.71-.62c-1-.17-1.87-.21-3-.36l-6.34-.92.29,0a51.52,51.52,0,0,1-6.72-.81L238.3,11c-1.08-.16-2.19-.33-3.4-.62l.2,0c-1-.16-2.1-.25-3.22-.35s-2.28-.17-3.49-.32l.27,0a23.4,23.4,0,0,1-3.54-.32,28,28,0,0,1-3.43-.77l.39.08c-1-.12-2.05-.17-3.19-.26a26.81,26.81,0,0,1-3.6-.45l.3,0c-1.74-.12-3.5-.28-5.29-.55l-2.55-.43c-.82-.13-1.62-.24-2.43-.32-1.59-.17-3.21-.19-5-.26a30.54,30.54,0,0,1-5.52-.63l.23,0c-1.88-.24-4.45.1-7.3-.67l.48.08-7.11-.56A2.4,2.4,0,1,1,181.5,0h.16l6.89.57h0l.43.08a12.23,12.23,0,0,0,2.89.37c1.1.05,2.31,0,3.68.19h0l.21,0a25.86,25.86,0,0,0,4.7.55c1.65.07,3.46.1,5.27.29.91.09,1.8.21,2.68.35l2.52.42c1.6.24,3.25.39,4.94.51l.27,0h0a24.28,24.28,0,0,0,3,.36c1.07.09,2.19.13,3.44.29a1.91,1.91,0,0,1,.33.06l.06,0a22,22,0,0,0,5.6.88h0l.26,0c1.05.12,2.17.2,3.32.29s2.32.2,3.58.39l.15,0h0c1.79.42,4,.64,6.18,1a46.79,46.79,0,0,0,6.07.74l.29,0,6.13.89c1,.13,2.16.19,3.26.38a23.17,23.17,0,0,1,3.43.79l-.18,0c1.68.4,3.62.58,5.61.91,1,.13,2.07.33,3,.53s1.89.38,2.8.52,1.86.31,2.85.44,1.95.26,3,.44l.87.16.7.17,1.36.28c.93.18,1.94.36,3,.62l.8.21.69.15,1.37.31,2.73.62c1.77.37,3.79.59,5.86,1.06.53.14,1,.21,1.44.3l1.38.26,2.77.52c.43.09,1,.15,1.52.26s1.05.21,1.58.34a19,19,0,0,1,3.28,1.08l-.49-.18c.95.23,1.88.5,2.73.73a22.16,22.16,0,0,0,2.38.54l.18,0h0l5.26,1.3.22.08.11,0a14.71,14.71,0,0,0,2.05.6l2.53.56,1.29.28,1.38.35c.92.26,1.84.56,2.72.89l-.34-.11a34.1,34.1,0,0,1,5.18,1.56l-.29-.1,4.65,1.42,4.67,1.67a41.54,41.54,0,0,0,4.33,1.34c1.66.54,3.18,1.11,4.77,1.66l-.26-.08c.75.2,1.56.41,2.46.74a21.89,21.89,0,0,1,2.4,1.08l-.64-.24a15.91,15.91,0,0,1,5,1.87l-.46-.25,4.09,1.78c.29.12.78.36,1.1.53l1,.49a8.13,8.13,0,0,0,1.45.62h0a3.58,3.58,0,0,1,.64.26c.6.34,1.13.64,1.63.89.24.12.47.22.63.28l.1,0h-.06l-.13,0h-.23a2,2,0,0,0-.42.06l1.81.16c.6.24,1.27.52,1.92.83a16.27,16.27,0,0,1,2.06,1.12l.73.43c.24.14.47.27.69.38a10,10,0,0,0,1.38.56h0a2.9,2.9,0,0,1,.73.35,18.74,18.74,0,0,0,2.82,1.58,2.31,2.31,0,0,1,.35.18h0a16.61,16.61,0,0,0,2.7,1.43l.64.35c-.08-.06,0,0,.25.11l.77.32a10.05,10.05,0,0,1,2.22,1.21l-.41-.26A11.36,11.36,0,0,1,390,49.5a8.57,8.57,0,0,0,.91.71l-.28-.15c.53.24,1.05.48,1.6.77.28.14.56.29.87.48a5.84,5.84,0,0,1,1.23.95l-.78-.58a11.32,11.32,0,0,1,1.75,1.07A7.67,7.67,0,0,1,397,54.54l.11.17a1.11,1.11,0,0,0-.12-.15c0-.05-.06-.06,0,0a3.1,3.1,0,0,0,.35.25l.64.4a7.07,7.07,0,0,1,1,.7l.05,0,.21.21a2.17,2.17,0,0,0,.56.41,7.68,7.68,0,0,1,1,.7,4.53,4.53,0,0,1,1.33,1.88l-2.32-1.92a4.56,4.56,0,0,1,1.78.71,6,6,0,0,1,1,.88,7.39,7.39,0,0,0,.68.69l-.85-.5a5.12,5.12,0,0,1,1.54,1,7.87,7.87,0,0,1,.82.88c.43.54.74,1,1,1.36l-.77-.76a12.44,12.44,0,0,1,1.61,1.35,9.37,9.37,0,0,0,.84.78l-.33-.21A5.41,5.41,0,0,1,409,65a5,5,0,0,1,.64,1.28,3.3,3.3,0,0,1,.13.54,2.66,2.66,0,0,1,0,.34c0,.15,0,.31,0,.46a4.39,4.39,0,0,1-.09.6,3.32,3.32,0,0,1-.26.71,3.22,3.22,0,0,1-1.26,1.33l1.45-3.06a1.69,1.69,0,0,0-.78-1.14l.62.3a3.9,3.9,0,0,1,.5.32,2.24,2.24,0,0,1,.38.33,2.9,2.9,0,0,1,.4.46,3.42,3.42,0,0,1,.56,1.37,2.91,2.91,0,0,1,0,.63,3.68,3.68,0,0,1-.06.58l-.73-2.57a10.42,10.42,0,0,1,1.06,1.25,4.83,4.83,0,0,1,.68,1.47,3.92,3.92,0,0,1-.23,2.62l-1-3.69a4.76,4.76,0,0,1,1,.94,4.86,4.86,0,0,1,.65,1.12c.25.61.31.87.42,1.15l-1.14-1.46a4.72,4.72,0,0,1,1.24,1.22,4.6,4.6,0,0,1,.65,1.6c.14.76.08.26-.07.08l.2.36a4.6,4.6,0,0,1,.43,1.57c0,.37.05.47,0,.22a2.06,2.06,0,0,0-.59-1,1,1,0,0,0-.36-.25l.51.28a4.53,4.53,0,0,1,1.21,1.22,4.36,4.36,0,0,1,.58,3.4,3.92,3.92,0,0,1-.32.9,3,3,0,0,1-.34.56,3.84,3.84,0,0,1-.28.34,4,4,0,0,1-.49.43l1.13-3.24a4.28,4.28,0,0,1,.17,1.33c0,.35,0,.57,0,.66s0-.24-.12-.5l-.12,2.56a1.58,1.58,0,0,0,.16-.37,2.26,2.26,0,0,0,.1-.53,2.14,2.14,0,0,0-.11-.9c-.11-.3,0-.11.1.15a5.59,5.59,0,0,1,.42,1.15,5.13,5.13,0,0,1,.13,1.33l-.85-2.17a4.07,4.07,0,0,1,1.08,2.15,6.69,6.69,0,0,1,.1,1.14,5,5,0,0,0,0,.6l-.46-1a3.75,3.75,0,0,1,.69,1.79,3.82,3.82,0,0,1-.11,1.5,5.54,5.54,0,0,1-.61,1.45,12.67,12.67,0,0,0-.61,1.12l.08-.23-.23.71-.15.55a4.18,4.18,0,0,0-.15.81,3.29,3.29,0,0,1-.11.64l0,0a8.81,8.81,0,0,1-2.31,3.85L413,96c-.65.94-1.31,1.78-1.93,2.59s-1.2,1.59-1.64,2.29l0,0a2.83,2.83,0,0,1-.72.78,17.31,17.31,0,0,0-2.23,2.1c-.41.44-.86.92-1.36,1.39-.25.24-.51.47-.78.7l-.77.63c-.87.68-1.78,1.49-2.85,2.3a21.85,21.85,0,0,1-3.52,2.17l.23-.12L390.13,115l.25-.15a33.26,33.26,0,0,1-4.25,2.27c-1.41.64-2.81,1.2-4.2,1.75l.51-.26a24.54,24.54,0,0,1-4.74,2.26c-1.55.58-3.08,1.06-4.58,1.51l.42-.16a59.65,59.65,0,0,1-9.61,3.32l.22-.07c-3.26,1.17-6.5,2.08-9.74,3a1.65,1.65,0,0,1-.32.06H354a22.13,22.13,0,0,0-4.28,1.07,42.6,42.6,0,0,1-5.17,1.54l.28-.07a67.05,67.05,0,0,1-10.16,2.44l.65-.16a29.59,29.59,0,0,1-5.25,1.31c-1.65.28-3.2.51-4.61.83a55.87,55.87,0,0,1-10,1.84l.5-.06-9.16,1.45.26,0c-1.44.3-2.85.52-4.24.7s-2.76.32-4.07.45l-8.1.92.33,0a36.57,36.57,0,0,1-3.73.38l-1.65.1c-.52,0-1,.08-1.38.13h-.05l-.21,0-6.23.44-3.11.22c-.5.05-1.07.05-1.55.06l-1.44.07c-1.95.11-4,.33-6.16.44l-.84,0h-2.32c-1,0-1.95.07-2.95.12l-6.11.39c-2.14.11-4.25.12-6.29.13h-2.35c-.3,0-.55,0-.82,0-.92,0-1.88,0-2.88,0-2,.08-4.16.19-6.4.09h.26c-2.62.07-5,0-7.37-.05h-1.74c-.65,0-1.27,0-1.87,0l-3.65-.06L205.66,143c-2.5,0-5-.12-7.37-.24l-1.77-.07-1.8,0c-1.27,0-2.5-.12-3.7-.2s-2.4-.15-3.56-.2l-3.6-.11c-2.45-.09-5-.25-7.43-.53l.34,0c-1.6,0-3.23,0-4.93-.08a31.05,31.05,0,0,1-5.13-.72l.61.07a62.84,62.84,0,0,1-7.28-.66l-1.65-.17c-.58,0-1.17-.11-1.74-.18l-3.47-.39-3.47-.39c-1.1-.12-2.48-.25-3.68-.46a34.78,34.78,0,0,0-6.39-.86h0a1.88,1.88,0,0,1-.41,0l-9.08-1.35h0l-.19,0c-1.34-.3-2.77-.51-4.26-.73s-3-.41-4.67-.75l.31.05a62.55,62.55,0,0,1-9.23-1.67c-2.44-.6-5.68-.82-8.87-1.8l.23.06c-1.33-.29-2.72-.49-4.26-.77a27.13,27.13,0,0,1-4.76-1.32l.35.12-4-1.05c-1.29-.34-2.55-.63-3.85-.88l.37,0a21.2,21.2,0,0,1-5.12-1.2c-.73-.24-1.39-.46-2-.64s-1.23-.32-2-.48c-1.59-.38-3-.77-4.56-1.21s-3-.89-4.46-1.41h0l-.22-.09a22.42,22.42,0,0,0-3.27-1c-1.26-.33-2.61-.66-4-1.16-.69-.22-1.52-.61-1.95-.77s-1.12-.42-1.7-.62l-3.7-1.23-1.93-.66c-.66-.24-1.32-.51-1.91-.74L46.68,115,43,113.57l-.92-.36-1-.44-1.82-.85c-1.2-.57-2.35-1.14-3.49-1.64-.57-.26-1.13-.5-1.69-.72l-1-.38c-.36-.15-.71-.31-1-.47-1.34-.65-2.52-1.35-3.65-2l-1.64-1c-.54-.32-1-.5-1.72-.92a73.61,73.61,0,0,1-6.86-4.45A38.08,38.08,0,0,1,15,97.66a18.39,18.39,0,0,0-2.6-2h0a3.47,3.47,0,0,1-.37-.26,18,18,0,0,1-2.92-3.06A17.85,17.85,0,0,0,7,90a2.58,2.58,0,0,1-.36-.38A31.56,31.56,0,0,1,4.2,85.84l-1-1.76c-.16-.29-.37-.63-.58-1.09s-.34-.75-.48-1.13A37.91,37.91,0,0,1,.89,77.7l-.24-.85C.54,76.53.4,76.08.3,75.66a8.46,8.46,0,0,1-.22-1.47,5.36,5.36,0,0,1,.25-2.11L.24,73.62A9.63,9.63,0,0,1,0,71.56a7.17,7.17,0,0,1,.42-2.39l0-.1a3.78,3.78,0,0,1,.17-.35,1.86,1.86,0,0,0,.19-.49c.05-.14,0-.22.08.12l-.18-.88a6.64,6.64,0,0,1,.1-1.28,8.47,8.47,0,0,1,.25-1,8.24,8.24,0,0,1,.94-2l-.46,1.41a6.4,6.4,0,0,1,.19-1.28A5.51,5.51,0,0,1,2.23,62c.39-.71.66-1,.88-1.4l-.2.36a14.81,14.81,0,0,1,.81-1.58A8.43,8.43,0,0,1,5.05,57.7l-.15.15A6.57,6.57,0,0,0,5.44,57a8.08,8.08,0,0,1,1.39-1.69l-.32.35,1.21-1.34c.4-.43.83-.91,1.21-1.31A13.24,13.24,0,0,0,9.86,52a7.54,7.54,0,0,1,1.88-1.62l-.78.71a7.75,7.75,0,0,1,1.8-1.64c.49-.33.88-.58,1.11-.77a2.36,2.36,0,0,1,.84-.45l.23-.06.26-.1a1.27,1.27,0,0,0,.21-.16l.59-.56a7.05,7.05,0,0,1,1.19-.92l-1,.91a5.41,5.41,0,0,1,1.14-1.25c.3-.25.57-.45.83-.63l1.33-.9a2.16,2.16,0,0,1,.36-.2l.14-.06a12,12,0,0,0,1.23-.67c.44-.27.89-.57,1.33-.87a2.49,2.49,0,0,1,.58-.31l.17-.06a5.71,5.71,0,0,0,1.92-1.2l.12-.11.1-.08a15.13,15.13,0,0,1,1.89-1.29,9.89,9.89,0,0,1,2.49-.94l-.85.34a13.85,13.85,0,0,1,2.07-1l.75-.3c.2-.08.35-.17.31-.14l.33-.2c4-1.79,7.92-3.33,11.94-4.82,1-.36,2-.78,3-1.09.91-.28,1.84-.61,2.81-1s2-.73,3-1.07l3-1c8-2.57,16.15-4.77,24.33-6.68l6.12-1.4c2-.47,4.1-1,6.28-1.34,4.11-.73,8.24-1.6,12.32-2.23,2.07-.34,4-.69,6.23-1l6.21-.84,1.5-.23c.6-.1,1.1-.15,1.62-.21l3.09-.37,6.18-.73.1,0h.15c1.63-.11,3.34-.32,5.08-.51s3.53-.41,5.48-.49l-.35,0c3.85-.55,7.45-.5,10.8-.78h.32c2.54.06,5.23-.21,8.1-.4.71-.05,1.45-.09,2.17-.12l2.12-.07L168.4,11c2.8-.09,5.61-.18,8.42-.2s5.73-.05,8.47-.07h16.79c1.47,0,3,.17,4.42.33.69.07,1.34.14,1.94.18s1.3.06,2,.09,1.43,0,2.18.09c.44,0,1.29,0,2,0,1.46,0,3,.14,4.49.33l-.86,0a17.87,17.87,0,0,1,3.45-.09c1,.05,1.94.12,2.79.14h.23c1,.1,1.94.2,2.94.33s2,.29,3.11.54l-.77-.06a25.63,25.63,0,0,1,3.2.1l2.82.26c1,.06,2,.23,2.92.35l2.92.37-.42,0a25.36,25.36,0,0,1,3.28.21c1,.11,2,.24,2.83.32h.11l.14,0,4.07.54c1.38.19,2.62.32,4.06.43.71.06,1.46.12,2.23.23l2.15.33c1.44.22,2.79.5,4,.59l.2,0,5.44.53c1,.1,2,.23,3,.4s2,.36,2.93.59l-.33-.06,5.74.93a32.14,32.14,0,0,0,5.1.72l.39,0h0l5.34.93,5.35.87.27,0,5.3.92,2.68.42a17.29,17.29,0,0,1,3.07.75l-.29-.09,2.65.64c.41.1.82.19,1.2.26a8.09,8.09,0,0,0,1,.13h0a2.33,2.33,0,0,1,.37,0l5.36,1.09-.34-.06c1.62.18,2.95.58,4.13.81l.91.17a9.42,9.42,0,0,1,1,.22l1.94.5,4,1c1.38.4,2.51.76,3.68,1l.26.07h0a25.87,25.87,0,0,0,3.36.75l1,.19c.42.08.71.16,1,.24L342,31l1.84.48c.31.08.62.17.91.23s.71.16,1,.25c1.34.36,2.59.81,3.49,1h0a.94.94,0,0,1,.24.06,21.06,21.06,0,0,0,2.14.39,12.78,12.78,0,0,1,2.95.84l-.25-.09,2.42.71A16.5,16.5,0,0,1,359.48,36l.17.08a.83.83,0,0,1,.21.16,2.9,2.9,0,0,0,.81.31c.45.12,1,.23,1.6.35l.94.19c.39.08.71.18,1,.24.58.15,1.21.31,1.86.5a15.5,15.5,0,0,1,2,.73c.32.14.79.38.93.46l.65.29a19.49,19.49,0,0,0,3.05.9h0l.19,0c.87.25,1.68.58,2.36.84a10,10,0,0,0,1.73.56,2.64,2.64,0,0,1,.52.16l0,0c.54.24,1.27.49,2,.74l1.19.42a8.73,8.73,0,0,1,1.51.67l-.42-.2c1.22.45,2.66.83,4.21,1.48l-.28-.1a22,22,0,0,1,2.38.86c.72.3,1.32.56,1.85.72a3,3,0,0,1,.6.27,11.45,11.45,0,0,0,1.57.79c.58.24,1.23.47,1.8.64l-.19,0a12.64,12.64,0,0,1,3.59,1.62,3.81,3.81,0,0,0,.5.25c.12.06.4.16.63.25l1.54.57c.53.2,1.08.42,1.64.68s.95.41,1.43.62l2.81,1.17.24.11h0a23.74,23.74,0,0,1,3.7,2.07l-.31-.2a18.06,18.06,0,0,0,1.68.78,11.3,11.3,0,0,1,2.37,1.25l-.91-.43a10,10,0,0,1,2.33.89,8,8,0,0,1,2.13,1.68l-.88-.64a7.82,7.82,0,0,1,1.09.6l.78.51c.47.32.92.62,1.21.77l.2.11h0a9.45,9.45,0,0,0,1.43.74,11.25,11.25,0,0,1,1.09.52,7.17,7.17,0,0,1,1.23.83l-.26-.19a8.14,8.14,0,0,1,1,.81q.3.28.51.45c.27.23.45.24.19.2l1.61.82c-.22-.22-.11-.09.07,0l.77.38c.3.15.65.32,1,.56a5.3,5.3,0,0,1,1.32,1.11l-.17-.19a8,8,0,0,0,1,.71c.45.29.9.56,1.51,1l.33.25.29.21.69.47a11.54,11.54,0,0,1,1.64,1.3l-.37-.3c2.09,1.37,3.6,3,5,4.1a2.72,2.72,0,0,1,.35.32,20.21,20.21,0,0,0,1.89,1.74,20,20,0,0,1,2.39,2.3c.47.58.7,1,1,1.37s.49.72.73,1a6,6,0,0,0,1.53,1.38h0A2.46,2.46,0,0,1,448.44,84a3.64,3.64,0,0,0,.77,1.47,22,22,0,0,0,1.68,1.69h0a2.1,2.1,0,0,1,.4.5c.39.64.85,1.31,1.32,2,.24.37.48.76.72,1.21a8.15,8.15,0,0,1,.7,1.62,2.4,2.4,0,1,1-4.59,1.4h0Z"/></g></g></svg>