<svg xmlns="http://www.w3.org/2000/svg" viewBox="0 0 226.64 118.55"><defs><style>.cls-1{fill:#f6cb65;}</style></defs><g id="Layer_2" data-name="Layer 2"><g id="Lines"><path class="cls-1" d="M222.05,61.2a29.33,29.33,0,0,0-1.51-3.5,22.34,22.34,0,0,0-1.82-3.37,11.25,11.25,0,0,1-2.12-3.21c-.92-1.1-1.68-2.2-2.37-3.06s-1.87-2.25-2.59-2.89c-1-1-1.63-1.58-2.79-2.73a18.78,18.78,0,0,1-3-2.56c-.9-.52-1.91-1.71-3.1-2.4a10,10,0,0,1-3.23-2.26c-1.15-1-2.36-1.31-3.33-2.12a6.91,6.91,0,0,0-3-1.79c-.93-.62-2-1-3.1-1.68-1.12-.31-1.82-1.28-3.14-1.6a10.72,10.72,0,0,1-3.2-1.5c-.81-.42-2.25-.83-3.25-1.41a10.46,10.46,0,0,0-2.06-.76,9.16,9.16,0,0,1-2.05-.89c-.59-.23-1.3-.47-2-.72s-1.49-.51-2.14-.8c-1.37-.45-2.81-1-4.22-1.39s-2.85-.73-4.26-1.28-2.79-.81-4.29-1.17l-4.33-1.05a29.93,29.93,0,0,0-4.35-.93c-1.27-.32-2.86-.58-4.37-.84s-2.86-.5-4.4-.73-2.95-.52-4.41-.64c-1.61-.33-3-.33-4.43-.55s-3-.27-4.44-.46-2.83-.1-4.45-.39a18.29,18.29,0,0,1-2.23-.17,8.53,8.53,0,0,0-2.23-.15c-.46-.13-1.53-.14-2.09-.22a23.66,23.66,0,0,1-2.38,0,13.37,13.37,0,0,0-2.17-.23c-.56.08-1.55,0-2.3.16a7.23,7.23,0,0,0-2.15-.13c-.69,0-1.59.17-2.32.21s-1.49.13-2.19.19a14.16,14.16,0,0,1-2.28,0c-1.54.39-2.94.15-4.45.36A8.35,8.35,0,0,1,93,13c-1.43.59-3.27.32-4.43.61a20,20,0,0,1-4.41.71c-1.12.22-3.16-.06-4.38.82a13.89,13.89,0,0,0-3.93.84A14.13,14.13,0,0,0,72,17c-1.42.65-2.51,1.21-3.87,1.06-1.37.44-2.29,1.14-3.83,1.16a12.88,12.88,0,0,0-3.8,1.27,6.78,6.78,0,0,0-3.12,1.15c-1,.37-1.92.82-3.1,1.22s-1.76,1-3.06,1.31c-.92.32-2.14,1.09-3,1.38s-1.46,1-3,1.46a20,20,0,0,0-3,1.49c-1,.79-2.13,1.05-3.51,1.88a25.39,25.39,0,0,1-3.48,1.94c-1.85,1-2.22.9-3.43,2-1.19.58-2.15,1.56-3.36,2.14a34.63,34.63,0,0,0-3.27,2.28,17.1,17.1,0,0,0-2,1.51c-.63.53-1.27,1.07-1.88,1.63s-1.17,1.17-1.73,1.76a15.74,15.74,0,0,1-1.72,1.75c-.76.75-1.55,1.53-2.28,2.31-.86.52-1.1,1.86-2.16,2.39a10.84,10.84,0,0,0-2,2.52c-.23,1.08-1.43,2-1.76,2.64A17.28,17.28,0,0,0,8.19,58,9.18,9.18,0,0,0,7,60.89a26.25,26.25,0,0,0-.89,3c-.15,1.21-.77,1.93-.53,3S5.17,68.82,5.38,70c0,1.08.19,2.25.2,3.09.45.89.1,2.13.56,3.05.2.89.72,2.26.88,3,.49.92.83,2.05,1.24,2.86a25.94,25.94,0,0,1,1.56,2.72,5.11,5.11,0,0,0,1.83,2.56c1.07.71,1.52,2,2.56,2.84A28.29,28.29,0,0,1,17,92.69c1.11,1.07,2.11,1.49,3.08,2.38,1.08.7,2.25,1.48,3.27,2.16s2.19,1.19,3.43,1.93a12.32,12.32,0,0,1,2.95,1.47,19.53,19.53,0,0,0,3,1.35,17.05,17.05,0,0,0,3.09,1.18,17.16,17.16,0,0,1,3.17,1,20.7,20.7,0,0,0,3.19.93,9.64,9.64,0,0,1,3.2.94c.61.21,1.65.37,2.41.7a8.82,8.82,0,0,1,2.4.73c.8.24,1.6.46,2.4.68s1.6.42,2.4.65a10.81,10.81,0,0,0,2.41.6c.84.07,2,0,2.43.56a6.6,6.6,0,0,0,2.43.55,3,3,0,0,1,2.45.48c1.09.1,2.88.53,3.93.7a13.13,13.13,0,0,0,4,.61c1.27-.19,2.92.68,4,.5a19.85,19.85,0,0,1,4,.4c.86-.11,2.52.5,4,.27a18.32,18.32,0,0,0,4.47.13,33.16,33.16,0,0,1,4.47,0c1.6,0,2.7-.45,4.47-.15,1.71-.12,3.09-.22,4.46-.27s2.83-.53,4.46-.41c1.68.54,3.26-.45,4.45-.52a23.55,23.55,0,0,1,4.43-.64c1.7-.13,3-.65,4.41-.75a11.77,11.77,0,0,0,4.4-.86,23.31,23.31,0,0,0,3.92-.88,7.67,7.67,0,0,1,1.91-.52,5.73,5.73,0,0,0,2-.44c.67.19,1.19-.38,2-.45.88-.3,1.15-.32,1.91-.57a4.55,4.55,0,0,1,2-.52c.55-.1,1.77-.53,1.85-.55.88-.34,1.12-.15,2-.43.46.11,1.1-.66,1.83-.69a3.8,3.8,0,0,0,1.89-.68c.55-.73.92-.51,1.85-.56.57,0,1-.46,1.86-.72s1.2-.52,1.89-.58c.84-.34,1.54.12,2-.59.85-.09,1-.36,1.76-.79s1-.31,1.74-.63,1.23-.81,2-.84c.45-.41,1.41-.4,1.77-.78.31-.13,1.25-.5,1.9-.79.79.25,1.09-.2,1.71-.7a4.08,4.08,0,0,1,1.9-1,4.58,4.58,0,0,0,1.8-.84c.49-.25,1.35-.41,1.77-.94.72-.47,1.36-.26,1.78-.86a18.24,18.24,0,0,1,1.72-1,5.47,5.47,0,0,0,1.7-1,2.58,2.58,0,0,0,1.74-1,6.87,6.87,0,0,1,1.69-1,7.58,7.58,0,0,1,1.67-1.07c.57-.8,2.14-1.12,3.26-2.24.7-.81,2.23-1.14,3.16-2.38a16.57,16.57,0,0,0,3-2.52,35.61,35.61,0,0,1,2.85-2.69,21.16,21.16,0,0,0,2.64-2.86,29.46,29.46,0,0,0,2-2.53,14.19,14.19,0,0,1,1.8-2.65,21.55,21.55,0,0,0,1.54-2.79c.65-1,.5-1.63,1-2.18a7,7,0,0,0,.77-2.23,13.39,13.39,0,0,0,.53-2.29,15.13,15.13,0,0,0,.31-2.33,8,8,0,0,1,.08-2.34c-.24-.86.19-1.61-.17-2.34a12,12,0,0,0-.36-2.33,15.56,15.56,0,0,0-.56-2.29,5.25,5.25,0,0,0-.4-1.51c-.19-.47-.43-.94-.65-1.46-.69-1-.7-2.1-1.37-2.86A10.6,10.6,0,0,1,198,41c-.68-1.16-1.5-2-2.3-3.09-.82-.69-1.42-2.09-2.57-2.88a29.34,29.34,0,0,1-2.83-2.67c-.95-.89-2-1.61-3-2.49s-2.44-1.61-3.17-2.3a12.89,12.89,0,0,0-1.37-.91,10.78,10.78,0,0,1-1.38-.88,2.54,2.54,0,0,0-1.41-.85,2.65,2.65,0,0,0-1.42-.83c-.4-.09-.91-.48-1.46-.66a8.44,8.44,0,0,1-1.44-.91c-.93-.71-2.3-.87-3-1.5-1.41-.9-2.33-.84-3-1.4a17.43,17.43,0,0,0-3-1.32,43.56,43.56,0,0,0-4.12-1.63c-1.49-.45-2.75-.94-4.17-1.49a12.58,12.58,0,0,0-4.22-1.37,14.26,14.26,0,0,0-4.27-1.25c-1.33-.38-3.12-.69-4.3-1.14a23.27,23.27,0,0,0-4.33-1c-1.45-.26-2.8-.6-4.36-.93a38.64,38.64,0,0,1-4.37-.83,27.69,27.69,0,0,1-4.4-.74c-1-.11-1.86-.73-2.94-.44-1-.16-1.93-.25-3-.4a19.34,19.34,0,0,1-2.95-.37c-1.11.29-1.33-.19-2.15-.33-.81,0-1.41-.2-2.29-.15a8.7,8.7,0,0,1-2.21-.34c-.62-.08-2-.38-2.23-.07-.78,0-1.48.33-2.3-.28-.92.08-1.08-.25-2.16-.06a11.85,11.85,0,0,0-2.1-.25c-.86.19-1.74-.2-2.36,0a16.49,16.49,0,0,1-2.2-.13c-.68,0-1.44-.13-2.27-.06s-1.49,0-2.31-.13a10.31,10.31,0,0,0-2.15,0,5.84,5.84,0,0,1-2.16,0,5.32,5.32,0,0,0-2.32,0c.3.11-.34.22,0,0a6.11,6.11,0,0,1-1.7-.71,1.79,1.79,0,0,1-.7-1.69,3,3,0,0,1,.71-1.7,2,2,0,0,1,1.7-.7c.06.09,0,.1,0,0A41,41,0,0,1,92.6.1c1.54.12,3,0,4.55.12s3,.18,4.54.2c1.34,0,3.2.29,4.54.27a36.25,36.25,0,0,1,4.54.34,41.24,41.24,0,0,0,4.53.42c1.25-.06,3,.48,4.52.49s3.39.74,4.52.58c1.76.23,3.06,0,4.51.66a35.91,35.91,0,0,0,4.49.75c1.62.23,3.09.76,4.48.85s3.14,1,4.47,1c1.53.2,2.92.83,4.44,1A13.49,13.49,0,0,0,151.15,8c1.61.48,3,.8,4.39,1.29,1.64.49,2.74.86,4.35,1.41s3,1.11,4.32,1.55a6.1,6.1,0,0,1,4.27,1.69c1.36.24,1.5,1.24,3.17,1.37a22.49,22.49,0,0,0,3.13,1.46c.64.7,1.82.76,3.08,1.57.25.29,1,.39,1.37.8s1.26.45,1.68.85c.25.42,1,.56,1.4.89.76.36,1,.62,1.59.89a6.61,6.61,0,0,0,1.48.93c.4.72.91.68,1.45,1,1.08.86,2.23,1.55,3.41,2.47a30,30,0,0,1,3.27,2.68,33.18,33.18,0,0,0,3.08,2.93c.75,1.23,2.36,1.84,2.86,3.18A10.91,10.91,0,0,1,202,38.34a23.63,23.63,0,0,1,1.87,3.12c.82,1.32.9,2.25,1.57,3.3.12,1.11,1,2.29,1.23,3.47a6.52,6.52,0,0,1,.68,1.93c0,.67.13,1.41.14,1.68-.11.53.44,1.25.29,1.78-.05.75.32,1.12.13,1.91.23.59-.08,1.34.09,1.94.44.49-.3,1.38-.12,1.82a6.11,6.11,0,0,0-.13,1.4,1.42,1.42,0,0,1-.21,1.39c-.26.6-.1.71-.27,1.39-.35.28-.27,1.14-.33,1.36a4.47,4.47,0,0,1-.88,2.65A7.21,7.21,0,0,0,205,70a12.7,12.7,0,0,1-1.73,3.23,27.72,27.72,0,0,0-2,3c-.67.82-1.26,1.81-2.21,2.84-1.06,1.18-1.9,2.22-2.87,3.18a20.41,20.41,0,0,1-3.05,3c-1.11.79-2.12,2.08-3.2,2.75a6,6,0,0,1-3.33,2.56c-.92,1.13-1.66,2.09-3.42,2.41-1.32.8-1.22.6-1.75,1.14s-1.41.74-1.76,1.11-1.25.54-1.78,1a3.06,3.06,0,0,0-1.8,1.08c-.44.07-1.05.84-1.74,1-1,.7-1.26.25-1.9,1-1.09.39-1.69.5-1.9.91-.27.09-.75.4-1.8,1a4.88,4.88,0,0,1-2.05.92c-.5.36-1.13.07-1.69.85a5.46,5.46,0,0,0-1.93.88,4.79,4.79,0,0,0-1.86.78,9.17,9.17,0,0,0-2,.8c-.68.42-1.31.35-1.87.77a11.25,11.25,0,0,0-1.95.88c-.42.36-1.47.38-1.93.58-.46,0-1.17,1.16-2,.7a2.87,2.87,0,0,0-1.9.64c-.69,0-1.74.16-2,.55-.44.2-1.86,0-2,.66a1.1,1.1,0,0,1-1.28.38c-.46-.37-.73.28-1.24.28-.65.34-.92.72-1.19.28-.42-.07-1.21,0-1.3.32.44-.32-.83.2-1.24.31-.8-.07-1.25.54-1.25.3a2.15,2.15,0,0,1-1.25.28c-.65.36-.89.19-1.25.3-.59,0-1.1.34-1.65.43s-1,.52-1.68.36c-.77.19-1.1.23-1.69.4-.8.13-1.12.21-1.65.33-1.05.16-2.24.56-3.36.71a20.66,20.66,0,0,1-4,.76,35.35,35.35,0,0,0-4.07.64c-1.54.56-2.35.28-4.08.54-1.43-.07-3.21.46-4.1.46a29,29,0,0,1-4.1.38c-1.07.09-2.42.18-3.43.27a17.35,17.35,0,0,1-3.43.19c-1.2.45-2,.1-3.44.15,0,.17-1.3-.15-2.58.05-1,0-2.62,0-2.58,0-.86.41-1.78-.27-2.59-.08a6,6,0,0,1-2.58-.11c-1.4-.07-2.82-.35-4.13-.28a15.71,15.71,0,0,0-4.11-.38c-1,.06-2.76-.57-4.11-.48-1.86-.2-3-.94-4.1-.56a34.6,34.6,0,0,0-4.09-.61c-1.5-.44-3.31-.53-4.08-.75a15,15,0,0,1-4-.85c-1.35-.31-2.7-.63-4-1-.9-.22-1.78-.46-2.67-.7s-1.82-.45-2.64-.75c-.79-.11-1.95-.71-2.62-.8-1.3-.44-2.44-.77-3.93-1.26a20.71,20.71,0,0,1-3.9-1.39c-1.16-.51-2.7-1.11-3.87-1.52a19.53,19.53,0,0,1-3.84-1.64,31.38,31.38,0,0,1-3.8-1.78,27,27,0,0,0-3.11-1.65c-.93-.49-2-1.21-3-1.82a23.69,23.69,0,0,0-2.94-2,17.71,17.71,0,0,1-2.13-1.64,19.84,19.84,0,0,1-2.05-1.78,10.66,10.66,0,0,0-1.93-1.93c-.35-.55-1.12-1.2-1.8-2.08s-1.47-2-2.17-3c-.14-1.15-1.11-2-1.85-3.21A23.73,23.73,0,0,1,2,81c-.24-.77-.79-2.4-1.07-3.57-.45-1-.32-2.27-.68-3.65C.35,72.53-.12,71.25,0,70c-.21-1.31.52-2.5.2-3.73.38-1.82,0-2.52.64-3.67A9.27,9.27,0,0,0,2,59.09,8.72,8.72,0,0,1,3.4,55.71c.31-1.23,1.56-2.51,1.75-3.2,1.22-.55,1.26-1.87,2-3,.47-1.4,1.51-1.5,2.22-2.81a8.92,8.92,0,0,1,2.39-2.63c.82-.85,1.69-1.61,2.49-2.5a20.6,20.6,0,0,1,1.89-1.85c.63-.61,1.26-1.23,1.9-1.82s1.32-1.13,2-1.69l1-.79c.53-.26.85-1,1-.8,1.2-.73,2.09-1.64,3.37-2.44A14.27,14.27,0,0,1,29,29.89c1.38-.94,2.4-1.26,3.56-2.17a39.15,39.15,0,0,0,3.61-2c1.26-.29,2.33-1.4,3.68-1.94,1.41-.71,2.63-1.39,4.13-2.05,1.35-.87,3-1,4.2-1.92,1.44-.63,3-1.32,4.25-1.77a31.81,31.81,0,0,0,4.32-1.63,26.26,26.26,0,0,1,4.36-1.49c1.62-.17,2.93-1.21,4.4-1.35s2.88-.94,4.44-1.21a17.36,17.36,0,0,0,4.48-1.07,34.61,34.61,0,0,1,4.5-.92,32.27,32.27,0,0,1,4.52-.81,11.39,11.39,0,0,1,2.42-.42,14.22,14.22,0,0,0,2.12-.27,19.13,19.13,0,0,0,2.6-.38,7.6,7.6,0,0,1,2-.2A11.5,11.5,0,0,1,94.75,8a23,23,0,0,1,2.32-.22,8.92,8.92,0,0,1,2.25-.39c.67,0,1.49,0,2.32.06S103,7.3,104,7.26s1.44-.42,2.26,0a4.78,4.78,0,0,0,2.33.06c.77.18,1.43-.24,2.25-.11.64,0,1.7-.23,2.28.07a4.33,4.33,0,0,0,2.3,0,4.31,4.31,0,0,1,2.3.1,9.84,9.84,0,0,0,2.28.16,20.87,20.87,0,0,0,4.56.33c1.66.07,3.2.24,4.55.4a29,29,0,0,1,4.55.46,36.44,36.44,0,0,0,4.54.54,13.39,13.39,0,0,0,4.52.63,29.21,29.21,0,0,1,4.51.73c1.51.23,3.08.49,4.49.82a39.47,39.47,0,0,1,4.48.95c1.32.14,3.1.78,4.45,1.06A45.32,45.32,0,0,0,165,14.67a34.45,34.45,0,0,0,4.4,1.28c1.57.63,2.94.84,4.36,1.41a14.15,14.15,0,0,0,2.05.89c.67.23,1.39.42,2.27.64a6.14,6.14,0,0,0,2.05,1,10.14,10.14,0,0,0,2.23.7c.56-.18,1.26.23,2.19.78.46.26,1.48.75,2,1a8.29,8.29,0,0,1,3.13,1.46,12.13,12.13,0,0,0,3.08,1.55c1.19.28,1.71,1.14,3,1.65,1,.78,1.86.83,3,1.75,1.54.73,2.05,1.45,3.51,2.25.86.57,2.19,1.49,3.41,2.4A10.57,10.57,0,0,1,209.06,36a15,15,0,0,0,3.17,2.76c1.51.88,1.38,2.38,3,3A19,19,0,0,0,218,44.89c.66,1.76,2.29,2.21,2.58,3.37a15.08,15.08,0,0,0,2.31,3.58,31.06,31.06,0,0,0,2,3.78,18.43,18.43,0,0,1,1.64,4c.22.85-.15,1.09-.09,1.84a2.78,2.78,0,0,1-1.36,1.23,9.12,9.12,0,0,1-1.82-.09c-.27.14-.77-.56-1.23-1.33C222.08,61.14,221.87,60.86,222.05,61.2Z"/></g></g></svg>