<svg xmlns="http://www.w3.org/2000/svg" viewBox="0 0 454.94 139.13"><defs><style>.cls-1{fill:#ffc001;}</style></defs><g id="Layer_2" data-name="Layer 2"><g id="Lines"><path class="cls-1" d="M451.55,37.36A308.8,308.8,0,0,0,421,25.54q-15.6-5.14-31.65-8.77A442.55,442.55,0,0,0,324.37,6.59L316.15,6c-2.73-.18-5.47-.44-8.21-.52l-8.23-.36-4.12-.18-4.11-.08c-5.5-.08-11-.27-16.48-.17-2.75,0-5.5,0-8.25,0s-5.49.08-8.24.12L250.26,5,242,5.29l-8.25.34-8.23.59c-2.74.22-5.49.34-8.23.64l-8.21.83c-5.48.51-10.94,1.23-16.4,1.87-21.84,2.7-43.62,6.1-65.12,10.6-10.75,2.28-21.45,4.75-32.06,7.53A322,322,0,0,0,64,37.18c-2.56,1-5.07,2.08-7.58,3.17s-5,2.13-7.56,3.18c-5,2.12-10,4.33-14.85,6.81a106.28,106.28,0,0,0-13.83,8.32A46.11,46.11,0,0,0,9.06,69.56,18.56,18.56,0,0,0,5.58,83.44c.07.61.27,1.2.39,1.8s.4,1.17.59,1.75a11.29,11.29,0,0,0,.74,1.72,11.87,11.87,0,0,0,.86,1.66l1,1.62,1.15,1.53A15.56,15.56,0,0,0,11.54,95c.44.47.83,1,1.31,1.43a57.56,57.56,0,0,0,12.82,9.32,118.62,118.62,0,0,0,14.74,6.77c5.07,2,10.27,3.65,15.52,5.14s10.56,2.88,15.94,4,10.77,2,16.19,2.88L104.32,127q32.57,4.87,65.56,6.69c2.75.17,5.5.25,8.25.35s5.49.18,8.24.21l8.26,0h4.12l4.13-.06,8.25-.12,8.25-.25c5.5-.13,11-.44,16.49-.69,22-1.24,43.83-4,65.63-6.84,5.43-.81,10.9-1.41,16.33-2.2,2.72-.37,5.44-.76,8.15-1.2s5.42-.84,8.13-1.31c10.82-1.83,21.58-4,32.23-6.55a310.61,310.61,0,0,0,31.48-9.29,163.73,163.73,0,0,0,29.62-13.66L430.88,90c1.11-.77,2.22-1.52,3.27-2.34a55.92,55.92,0,0,0,6-5.24c3.7-3.75,6.93-8.06,8.59-12.87A20.89,20.89,0,0,0,450,62.22a18.35,18.35,0,0,0-1.74-7.1,37.64,37.64,0,0,0-9.63-12A81.57,81.57,0,0,0,425.43,34q-7.11-4-14.52-7.54A200.2,200.2,0,0,0,380.42,14.8h0a2.4,2.4,0,0,1,1.31-4.61h0a215.23,215.23,0,0,1,31.21,12q7.56,3.55,14.84,7.68a85.83,85.83,0,0,1,14,9.66,42.12,42.12,0,0,1,10.88,13.67,22.88,22.88,0,0,1,2.17,9,25.58,25.58,0,0,1-1.48,9,40.35,40.35,0,0,1-9.69,14.7,60.47,60.47,0,0,1-6.52,5.7c-1.13.89-2.32,1.7-3.5,2.52L430,96.38a168.12,168.12,0,0,1-30.42,14.28,313.81,313.81,0,0,1-32,9.65c-21.57,5.33-43.5,8.86-65.44,11.61q-16.47,2-33,3.59c-11,1.11-22,2-33.1,2.61-5.53.24-11.05.53-16.59.64l-8.3.22-8.3.1-4.15,0-4.16,0-8.3-.05q-4.16-.06-8.3-.23c-2.77-.11-5.54-.19-8.3-.36-22.12-1.26-44.21-3.05-66.15-6.22-11-1.59-21.89-3.51-32.74-5.92a246.13,246.13,0,0,1-32.22-9,114.73,114.73,0,0,1-15.48-6.92,62.56,62.56,0,0,1-14-10.2c-.54-.5-1-1.09-1.52-1.64a18.56,18.56,0,0,1-1.45-1.72L4.77,95l-1.2-2A26.58,26.58,0,0,1,.33,84.37a22,22,0,0,1,.4-9.44,26.47,26.47,0,0,1,3.89-8.36A51,51,0,0,1,17.09,54.36a110.61,110.61,0,0,1,14.53-8.74c5-2.56,10.11-4.81,15.24-7s10.25-4.33,15.45-6.32c10.43-3.85,21.09-7,31.83-9.83S115.7,17.25,126.55,15c21.73-4.42,43.61-7.7,65.58-10.32,5.5-.61,11-1.3,16.5-1.79l8.27-.79c2.75-.29,5.52-.4,8.28-.61L233.46,1l8.3-.32,8.3-.31,8.3-.16c2.77,0,5.53-.16,8.3-.12s5.54,0,8.31,0c5.53-.12,11.07.06,16.6.12l4.15.07,4.15.17,8.3.35c2.77.07,5.53.32,8.29.5l8.29.57a437,437,0,0,1,65.7,10q16.23,3.73,32.05,9a317.82,317.82,0,0,1,31,12.11,2.4,2.4,0,0,1-2,4.38Z"/></g></g></svg>