<svg xmlns="http://www.w3.org/2000/svg" viewBox="0 0 404.82 8.37"><defs><style>.cls-1{fill:#f9c94d;}</style></defs><g id="Layer_2" data-name="Layer 2"><g id="Lines"><path class="cls-1" d="M2.31,3c8.33-.4,16.67-.57,25-.85s16.68-.26,25-.4l12.51-.13,6.25-.06,6.26,0,6.26.17,3.12.07h3.13c4.17,0,8.34-.21,12.5-.3l25-.94c2.08-.06,4.16-.17,6.25-.19l6.25,0c4.17.07,8.34.31,12.51.14,1,0,2.08-.23,3.12-.33A23.48,23.48,0,0,1,158.62,0h18.76l25,.32c2.09.05,4.17.08,6.26.09s4.17.09,6.25,0S219.07.2,221.16.1,225.32,0,227.41,0c4.17,0,8.34.27,12.5.45s8.34.44,12.5.65c8.34.34,16.68.33,25,.26s16.69-.64,25-.69c16.67.48,33.34,1.18,50,1.85,8.33.27,16.68,0,25,.25s16.67.42,25,.78h.06a2.4,2.4,0,0,1-.21,4.8h0c-8.33-.41-16.66-.54-25-.8-2.08-.05-4.16-.1-6.24-.1s-4.17,0-6.26,0l-6.25.06-6.25,0-50-1.19c-4.16,0-8.33-.17-12.49-.13s-8.34.12-12.5.12c-8.33,0-16.66-.07-25-.43-4.16-.24-8.33-.46-12.49-.46s-8.33-.08-12.5-.09l-12.5-.06c-4.16,0-8.33.18-12.49.21s-8.33.06-12.5,0l-12.5-.1-12.49,0a111,111,0,0,0-12.5.3c-4.16.13-8.33.09-12.49.07s-8.33,0-12.5.11c-8.33.21-16.66.42-25,.53l-6.24.13c-2.08,0-4.17.1-6.25.06l-3.12,0-3.13-.1-6.25-.2c-2.09,0-4.17,0-6.25,0l-6.25.12-12.5.22-50,1.26A2.4,2.4,0,0,1,2.28,3Z"/></g></g></svg>