<svg xmlns="http://www.w3.org/2000/svg" viewBox="0 0 26 21.49"><defs><style>.cls-1{fill:#141414;}</style></defs><g id="Layer_2" data-name="Layer 2"><g id="Layer_1-2" data-name="Layer 1"><path class="cls-1" d="M7,0c2.93,0,5.86,2.08,7.37,4.67L14,4.82A6.08,6.08,0,0,0,8.88,2.67c-3.65,0-6.82,2.59-6.82,5.78a5.69,5.69,0,0,0,1.59,4l-.4.15A7.62,7.62,0,0,1,0,6.45C0,2.3,2.93,0,7,0Z"/><path class="cls-1" d="M14.66,6.75c1.75-1.19,3.81-2.53,6-2.53a5.28,5.28,0,0,1,5.23,4.9h-.4a2.92,2.92,0,0,0-3.09-2c-1.66,0-3,.81-5.78,2.66L.32,21.49V17.2Z"/><path class="cls-1" d="M17.76,11a4.34,4.34,0,0,0,4,1.85c2.22,0,3.49-.89,3.8-2.44H26c-.24,3-2,4.52-4.12,4.52S18.23,13,17.6,11.19Z"/><path class="cls-1" d="M12.92,21.35a2.15,2.15,0,1,0,0-4.3,2.15,2.15,0,1,0,0,4.3Z"/></g></g></svg>