<svg xmlns="http://www.w3.org/2000/svg" viewBox="0 0 187.06 4.59"><defs><style>.cls-1{fill:#3eb984;}</style></defs><g id="Layer_2" data-name="Layer 2"><g id="Lines"><path class="cls-1" d="M185.86,4.59c-3.85,0-7.71-.07-11.56-.14s-7.69-.27-11.54-.42L157,3.79c-1.92-.07-3.85-.16-5.77-.32s-3.84-.32-5.76-.38S141.61,3,139.69,3c-7.69-.14-15.39.13-23.07-.34a38.38,38.38,0,0,1-5.77.13l-5.76-.06c-3.84-.06-7.68,0-11.53-.07-1.93,0-3.85,0-5.77,0S83.94,3,82,3c-3.85,0-7.7-.17-11.55-.29s-7.69,0-11.54.14-7.67.62-11.51.8c-7.68.18-15.39.31-23.11.27-7.73.23-15.43.16-23.11.16a1.2,1.2,0,0,1,0-2.4h0c7.71.07,15.41.08,23.05-.23,3.84,0,7.67-.15,11.51-.27L47.33.83c1.93-.08,3.86-.1,5.78-.2S57,.41,58.89.37L64.67.3c1.92,0,3.84-.07,5.77,0,3.85.16,7.7.1,11.55,0L87.76.28c1.93,0,3.85-.15,5.78-.2,3.84-.14,7.69-.06,11.55,0l5.79.08a48.49,48.49,0,0,0,5.78-.06l23.11.48c1.92.06,3.85.07,5.77.19s3.84.3,5.76.45,3.84.21,5.76.27l5.77.19,11.53.28,11.53.27a1.2,1.2,0,0,1,0,2.4Z"/></g></g></svg>