<?xml version="1.0" encoding="utf-8"?>
<!-- Generator: Adobe Illustrator 25.2.0, SVG Export Plug-In . SVG Version: 6.00 Build 0)  -->
<svg version="1.1" id="Layer_1" xmlns="http://www.w3.org/2000/svg" xmlns:xlink="http://www.w3.org/1999/xlink" x="0px" y="0px"
	 viewBox="0 0 324.8 7.4" style="enable-background:new 0 0 324.8 7.4;" xml:space="preserve">
<style type="text/css">
	.st0{fill:#00D1C1;}
</style>
<g id="Layer_2_1_">
	<g id="Lines">
		<path class="st0" d="M322,7.3c-13.3,0.2-26.6,0-39.9-0.2l-10-0.3l-5-0.1c-1.7,0-3.3-0.2-5-0.2l-5-0.3L254.7,6h-2.5
			c-1.7-0.1-3.3,0-5,0l-5,0.1c-13.3,0.3-26.6,1.3-39.9,0.3c-0.8,0.1-1.7,0.3-2.5,0.4s-1.7,0.2-2.5,0.1l-5-0.1l-10-0.1l-19.9-0.4
			c-3.3-0.1-6.6-0.2-10,0c-1.7,0-3.3,0.3-5,0.4s-3.3,0.2-5,0.1c-3.3,0-6.6-0.2-10-0.4s-6.7-0.4-10-0.6c-6.7-0.3-13.3-0.1-19.9,0.1
			S89.3,7,82.7,7.2C69.4,7.3,56.1,6.5,42.8,6.5l-5,0.1l-5,0.2c-1.7,0.1-3.3,0.2-5,0.2s-3.3,0.1-5,0.1c-6.6,0-13.3,0.1-19.9,0H2.8
			C1.2,7,0,5.8,0,4.2s1.3-2.8,2.8-2.8l0,0l0,0c6.7,0.2,13.3,0,20,0c1.7,0,3.3,0,5-0.1s3.3-0.1,5-0.2l5-0.3l5-0.2l19.9-0.1h19.9
			c3.3,0,6.7,0,10-0.1s6.7-0.3,10-0.4c6.7-0.1,13.3-0.2,20,0.1c3.3,0.2,6.6,0.4,10,0.4s6.6,0,10,0h10c3.3-0.1,6.6-0.2,10-0.4
			s6.6,0,10,0l10,0.2l10,0.2l5,0.1c0.8,0,1.7,0,2.5-0.1s1.7-0.2,2.5-0.2c3.3-0.1,6.6,0,10,0.1s6.6,0.1,10,0l19.6-0.2h5
			c1.7,0,3.3,0,5,0.1l2.5,0.1l2.5,0.2l5,0.4c1.7,0.1,3.3,0.2,5,0.2h5l10,0.1l20,0.1L322,1.7c1.5,0,2.8,1.3,2.8,2.8
			C324.8,6.1,323.5,7.3,322,7.3z"/>
	</g>
</g>
</svg>
