<svg xmlns="http://www.w3.org/2000/svg" viewBox="0 0 277.78 145.9"><defs><style>.cls-1{fill:#f1c247;}</style></defs><g id="Layer_2" data-name="Layer 2"><g id="Lines"><path class="cls-1" d="M1.73,136.38a186.46,186.46,0,0,0,57.56,9.51c17.54.11,35.27-2.33,51.86-8.13,16.06-5.61,31.12-14.36,43.07-26.55,11.23-11.47,19.85-25.76,23.91-41.34,4.22-16.2,3.68-34.62-4.63-49.48-7.7-13.78-23.79-24.31-39.86-19C126.22,3.87,120,9.32,117.58,16.85c-2.64,8.07-.7,17.29,3.76,24.34,4.58,7.23,11.49,12.62,18.84,16.82a98.75,98.75,0,0,0,24.71,9.93,100.34,100.34,0,0,0,52.28-.7,101.37,101.37,0,0,0,42.29-24.55,95.53,95.53,0,0,0,8-8.81,2.56,2.56,0,0,0,0-3.53,2.5,2.5,0,0,0-3.53,0,97.17,97.17,0,0,1-36.53,27.91,94.46,94.46,0,0,1-47.33,7.32,96.49,96.49,0,0,1-24.49-5.8A77.73,77.73,0,0,1,134.46,48.2c-6.07-4.89-11-11.16-12.6-18.93-1.46-7.17.55-14.59,6.28-19.33a23,23,0,0,1,18.57-4.56c7.34,1.42,13.68,5.82,18.41,11.5,10.11,12.15,12.18,29.8,9.63,44.93a85.4,85.4,0,0,1-19,40.23,102.24,102.24,0,0,1-37.88,27.75c-15,6.54-31.36,9.89-47.65,10.83A179.11,179.11,0,0,1,16,135.35q-6.54-1.66-12.93-3.8c-3.06-1-4.38,3.81-1.33,4.83Z"/><path class="cls-1" d="M251.27,30l24-12.17-3.76-2.16,1.25,25.54c.15,3.2,5.15,3.22,5,0l-1.25-25.54a2.53,2.53,0,0,0-3.76-2.16l-24,12.17c-2.87,1.46-.34,5.77,2.53,4.32Z"/></g></g></svg>