<svg xmlns="http://www.w3.org/2000/svg" viewBox="0 0 319.83 8.37"><defs><style>.cls-1{fill:#f9c94d;}</style></defs><g id="Layer_2" data-name="Layer 2"><g id="Lines"><path class="cls-1" d="M2.28,3c6.56-.4,13.13-.57,19.69-.85s13.14-.26,19.7-.39l9.86-.14,4.92-.06c1.65,0,3.29,0,4.93,0l4.93.17,2.47.07h2.46c3.28,0,6.56-.2,9.85-.3L100.78.57c3.28-.15,6.56-.31,9.85-.23s6.57.29,9.85.16A30.36,30.36,0,0,1,125.4,0h14.78c6.57.11,13.14.17,19.71.32,3.28.09,6.57.19,9.85.08C171.38.4,173,.2,174.67.1S178,0,179.59,0c3.29,0,6.57.27,9.85.45s6.57.44,9.85.65c6.56.34,13.13.33,19.7.26S232.14.72,238.71.69c6.57.17,13.13.48,19.69.84l9.84.57,9.84.44,4.93.12h4.93c3.28,0,6.57,0,9.85.13,6.56.26,13.13.42,19.69.78h.08a2.4,2.4,0,0,1-.27,4.79h0c-6.55-.41-13.11-.54-19.67-.8-1.64-.05-3.28-.1-4.92-.1s-3.28,0-4.92,0l-4.93.06-4.92,0-39.34-1.2c-3.27-.08-6.55-.16-9.83-.12s-6.57.12-9.85.12c-6.56,0-13.11-.07-19.67-.43-3.28-.24-6.55-.46-9.83-.46s-6.56-.08-9.84-.09l-9.84-.06c-3.28,0-6.56.15-9.84.24s-6.56,0-9.84,0l-9.84-.1-9.84,0a68.85,68.85,0,0,0-9.84.3c-3.27.13-6.55.09-9.83.07s-6.56,0-9.84.11l-19.67.58c-3.28,0-6.56.18-9.84.14l-2.46,0-2.46-.1-4.93-.2c-1.64,0-3.28,0-4.92,0l-4.92.12-9.84.22q-19.67.7-39.34,1.26A2.4,2.4,0,0,1,2.25,3Z"/></g></g></svg>